<svg width="857" height="549" viewBox="0 0 857 549" fill="none" xmlns="http://www.w3.org/2000/svg">
<g clip-path="url(#clip0)">
<path d="M679 50H185V501H679V50Z" fill="#E6E6E6"/>
<path opacity="0.2" d="M548.047 156.967L552.24 171.796L538.338 168.41L548.047 156.967ZM583.813 169.043L552.291 206.222C551.142 207.558 549.567 208.359 547.907 208.451C546.246 208.543 544.633 207.919 543.416 206.715L509.966 173.052C508.766 171.827 508.066 170.126 508.017 168.316C507.968 166.506 508.574 164.732 509.704 163.378L541.28 126.16C542.428 124.824 544.003 124.024 545.664 123.932C547.324 123.84 548.937 124.463 550.155 125.668L583.604 159.33C584.807 160.564 585.504 162.278 585.544 164.097C585.583 165.917 584.961 167.694 583.813 169.043V169.043ZM564.004 183.665C564.004 183.665 569.37 177.347 571.191 173.618C571.689 172.608 571.939 171.478 571.914 170.342C571.89 169.206 571.592 168.103 571.051 167.143C569.073 163.655 558.227 152.727 558.227 152.727C558.227 152.727 547.402 141.834 544.029 139.938C543.113 139.422 542.084 139.18 541.044 139.235C540.005 139.289 538.991 139.64 538.103 140.251C534.869 142.496 529.509 148.825 529.509 148.825C529.509 148.825 524.142 155.143 522.322 158.872C521.83 159.88 521.589 161.006 521.623 162.137C521.657 163.267 521.964 164.361 522.514 165.308C524.504 168.789 535.343 179.705 535.343 179.705C535.343 179.705 546.168 190.598 549.541 192.494C550.454 193.021 551.485 193.271 552.528 193.218C553.57 193.165 554.587 192.811 555.474 192.192C558.707 189.947 564.074 183.63 564.074 183.63L564.004 183.665Z" fill="#B91616"/>
<path opacity="0.2" d="M548.047 156.967L552.24 171.796L538.338 168.41L548.047 156.967ZM583.813 169.043L552.291 206.222C551.142 207.558 549.567 208.359 547.907 208.451C546.246 208.543 544.633 207.919 543.416 206.715L509.966 173.052C508.766 171.827 508.066 170.126 508.017 168.316C507.968 166.506 508.574 164.732 509.704 163.378L541.28 126.16C542.428 124.824 544.003 124.024 545.664 123.932C547.324 123.84 548.937 124.463 550.155 125.668L583.604 159.33C584.807 160.564 585.504 162.278 585.544 164.097C585.583 165.917 584.961 167.694 583.813 169.043V169.043ZM564.004 183.665C564.004 183.665 569.37 177.347 571.191 173.618C571.689 172.608 571.939 171.478 571.914 170.342C571.89 169.206 571.592 168.103 571.051 167.143C569.073 163.655 558.227 152.727 558.227 152.727C558.227 152.727 547.402 141.834 544.029 139.938C543.113 139.422 542.084 139.18 541.044 139.235C540.005 139.289 538.991 139.64 538.103 140.251C534.869 142.496 529.509 148.825 529.509 148.825C529.509 148.825 524.142 155.143 522.322 158.872C521.83 159.88 521.589 161.006 521.623 162.137C521.657 163.267 521.964 164.361 522.514 165.308C524.504 168.789 535.343 179.705 535.343 179.705C535.343 179.705 546.168 190.598 549.541 192.494C550.454 193.021 551.485 193.271 552.528 193.218C553.57 193.165 554.587 192.811 555.474 192.192C558.707 189.947 564.074 183.63 564.074 183.63L564.004 183.665Z" fill="#B91616"/>
<path opacity="0.2" d="M548.047 156.967L552.24 171.796L538.338 168.41L548.047 156.967ZM583.813 169.043L552.291 206.222C551.142 207.558 549.567 208.359 547.907 208.451C546.246 208.543 544.633 207.919 543.416 206.715L509.966 173.052C508.766 171.827 508.066 170.126 508.017 168.316C507.968 166.506 508.574 164.732 509.704 163.378L541.28 126.16C542.428 124.824 544.003 124.024 545.664 123.932C547.324 123.84 548.937 124.463 550.155 125.668L583.604 159.33C584.807 160.564 585.504 162.278 585.544 164.097C585.583 165.917 584.961 167.694 583.813 169.043V169.043ZM564.004 183.665C564.004 183.665 569.37 177.347 571.191 173.618C571.689 172.608 571.939 171.478 571.914 170.342C571.89 169.206 571.592 168.103 571.051 167.143C569.073 163.655 558.227 152.727 558.227 152.727C558.227 152.727 547.402 141.834 544.029 139.938C543.113 139.422 542.084 139.18 541.044 139.235C540.005 139.289 538.991 139.64 538.103 140.251C534.869 142.496 529.509 148.825 529.509 148.825C529.509 148.825 524.142 155.143 522.322 158.872C521.83 159.88 521.589 161.006 521.623 162.137C521.657 163.267 521.964 164.361 522.514 165.308C524.504 168.789 535.343 179.705 535.343 179.705C535.343 179.705 546.168 190.598 549.541 192.494C550.454 193.021 551.485 193.271 552.528 193.218C553.57 193.165 554.587 192.811 555.474 192.192C558.707 189.947 564.074 183.63 564.074 183.63L564.004 183.665Z" fill="#B91616"/>
<path opacity="0.2" d="M548.047 156.967L552.24 171.796L538.338 168.41L548.047 156.967ZM583.813 169.043L552.291 206.222C551.142 207.558 549.567 208.359 547.907 208.451C546.246 208.543 544.633 207.919 543.416 206.715L509.966 173.052C508.766 171.827 508.066 170.126 508.017 168.316C507.968 166.506 508.574 164.732 509.704 163.378L541.28 126.16C542.428 124.824 544.003 124.024 545.664 123.932C547.324 123.84 548.937 124.463 550.155 125.668L583.604 159.33C584.807 160.564 585.504 162.278 585.544 164.097C585.583 165.917 584.961 167.694 583.813 169.043V169.043ZM564.004 183.665C564.004 183.665 569.37 177.347 571.191 173.618C571.689 172.608 571.939 171.478 571.914 170.342C571.89 169.206 571.592 168.103 571.051 167.143C569.073 163.655 558.227 152.727 558.227 152.727C558.227 152.727 547.402 141.834 544.029 139.938C543.113 139.422 542.084 139.18 541.044 139.235C540.005 139.289 538.991 139.64 538.103 140.251C534.869 142.496 529.509 148.825 529.509 148.825C529.509 148.825 524.142 155.143 522.322 158.872C521.83 159.88 521.589 161.006 521.623 162.137C521.657 163.267 521.964 164.361 522.514 165.308C524.504 168.789 535.343 179.705 535.343 179.705C535.343 179.705 546.168 190.598 549.541 192.494C550.454 193.021 551.485 193.271 552.528 193.218C553.57 193.165 554.587 192.811 555.474 192.192C558.707 189.947 564.074 183.63 564.074 183.63L564.004 183.665Z" fill="#B91616"/>
<path opacity="0.2" d="M548.047 156.967L552.24 171.796L538.338 168.41L548.047 156.967ZM583.813 169.043L552.291 206.222C551.142 207.558 549.567 208.359 547.907 208.451C546.246 208.543 544.633 207.919 543.416 206.715L509.966 173.052C508.766 171.827 508.066 170.126 508.017 168.316C507.968 166.506 508.574 164.732 509.704 163.378L541.28 126.16C542.428 124.824 544.003 124.024 545.664 123.932C547.324 123.84 548.937 124.463 550.155 125.668L583.604 159.33C584.807 160.564 585.504 162.278 585.544 164.097C585.583 165.917 584.961 167.694 583.813 169.043V169.043ZM564.004 183.665C564.004 183.665 569.37 177.347 571.191 173.618C571.689 172.608 571.939 171.478 571.914 170.342C571.89 169.206 571.592 168.103 571.051 167.143C569.073 163.655 558.227 152.727 558.227 152.727C558.227 152.727 547.402 141.834 544.029 139.938C543.113 139.422 542.084 139.18 541.044 139.235C540.005 139.289 538.991 139.64 538.103 140.251C534.869 142.496 529.509 148.825 529.509 148.825C529.509 148.825 524.142 155.143 522.322 158.872C521.83 159.88 521.589 161.006 521.623 162.137C521.657 163.267 521.964 164.361 522.514 165.308C524.504 168.789 535.343 179.705 535.343 179.705C535.343 179.705 546.168 190.598 549.541 192.494C550.454 193.021 551.485 193.271 552.528 193.218C553.57 193.165 554.587 192.811 555.474 192.192C558.707 189.947 564.074 183.63 564.074 183.63L564.004 183.665Z" fill="#B91616"/>
<path opacity="0.2" d="M548.047 156.967L552.24 171.796L538.338 168.41L548.047 156.967ZM583.813 169.043L552.291 206.222C551.142 207.558 549.567 208.359 547.907 208.451C546.246 208.543 544.633 207.919 543.416 206.715L509.966 173.052C508.766 171.827 508.066 170.126 508.017 168.316C507.968 166.506 508.574 164.732 509.704 163.378L541.28 126.16C542.428 124.824 544.003 124.024 545.664 123.932C547.324 123.84 548.937 124.463 550.155 125.668L583.604 159.33C584.807 160.564 585.504 162.278 585.544 164.097C585.583 165.917 584.961 167.694 583.813 169.043V169.043ZM564.004 183.665C564.004 183.665 569.37 177.347 571.191 173.618C571.689 172.608 571.939 171.478 571.914 170.342C571.89 169.206 571.592 168.103 571.051 167.143C569.073 163.655 558.227 152.727 558.227 152.727C558.227 152.727 547.402 141.834 544.029 139.938C543.113 139.422 542.084 139.18 541.044 139.235C540.005 139.289 538.991 139.64 538.103 140.251C534.869 142.496 529.509 148.825 529.509 148.825C529.509 148.825 524.142 155.143 522.322 158.872C521.83 159.88 521.589 161.006 521.623 162.137C521.657 163.267 521.964 164.361 522.514 165.308C524.504 168.789 535.343 179.705 535.343 179.705C535.343 179.705 546.168 190.598 549.541 192.494C550.454 193.021 551.485 193.271 552.528 193.218C553.57 193.165 554.587 192.811 555.474 192.192C558.707 189.947 564.074 183.63 564.074 183.63L564.004 183.665Z" fill="#B91616"/>
<path opacity="0.2" d="M636.076 448.596L659.458 514.304C659.889 515.493 660.066 516.751 659.978 518.006C659.89 519.26 659.539 520.486 658.945 521.61C658.352 522.735 657.527 523.736 656.52 524.555C655.513 525.375 654.344 525.996 653.081 526.382L604.68 541.823C605.742 537.638 606.235 533.343 606.146 529.04C605.976 526.704 605.275 517.182 605.275 517.182C607.868 519.538 613.331 520.464 618.241 518.914C632.845 514.263 638.839 498.199 633.121 482.396C627.743 467.257 610.653 460.09 593.86 465.445C572.965 472.109 566.609 488.918 571.753 503.392C574.134 510.116 580.894 517.263 587.887 518.008C588.95 518.129 589.375 517.786 589.29 516.88C589.205 515.974 588.95 512.854 588.78 511.264C588.769 511.013 588.689 510.769 588.547 510.557C588.405 510.345 588.207 510.172 587.972 510.056C584.556 507.763 581.99 504.508 580.639 500.755C579.674 498.068 579.297 495.223 579.529 492.393C579.761 489.564 580.599 486.808 581.991 484.295C583.382 481.781 585.299 479.562 587.625 477.771C589.95 475.981 592.636 474.657 595.518 473.88C607.401 470.096 618.475 475.108 622.365 486.08C626.765 498.481 623.237 509.17 614.606 511.908C613.523 512.312 612.354 512.469 611.195 512.366C610.035 512.263 608.918 511.903 607.933 511.315C606.948 510.727 606.123 509.927 605.524 508.981C604.926 508.035 604.571 506.969 604.488 505.869C603.915 499.99 604.488 493.267 603.064 489.321C599.536 479.436 585.145 485.536 589.843 498.742C590.648 501.096 591.966 503.263 593.711 505.104C596.347 531.858 595.518 532.482 600.662 542.91H601.151L583.678 548.486C582.423 548.895 581.094 549.063 579.769 548.979C578.445 548.896 577.151 548.563 575.963 548.001C574.776 547.439 573.719 546.658 572.854 545.704C571.988 544.751 571.333 543.643 570.924 542.447L547.542 476.739C547.111 475.55 546.934 474.291 547.022 473.037C547.11 471.782 547.461 470.557 548.055 469.432C548.648 468.308 549.473 467.307 550.48 466.487C551.487 465.668 552.656 465.047 553.919 464.66L623.3 442.516C624.56 442.105 625.893 441.937 627.223 442.021C628.552 442.106 629.85 442.441 631.04 443.007C632.23 443.574 633.289 444.36 634.154 445.32C635.019 446.279 635.672 447.393 636.076 448.596V448.596Z" fill="#B91616"/>
<path opacity="0.2" d="M636.076 448.596L659.458 514.304C659.889 515.493 660.066 516.751 659.978 518.006C659.89 519.26 659.539 520.486 658.945 521.61C658.352 522.735 657.527 523.736 656.52 524.555C655.513 525.375 654.344 525.996 653.081 526.382L604.68 541.823C605.742 537.638 606.235 533.343 606.146 529.04C605.976 526.704 605.275 517.182 605.275 517.182C607.868 519.538 613.331 520.464 618.241 518.914C632.845 514.263 638.839 498.199 633.121 482.396C627.743 467.257 610.653 460.09 593.86 465.445C572.965 472.109 566.609 488.918 571.753 503.392C574.134 510.116 580.894 517.263 587.887 518.008C588.95 518.129 589.375 517.786 589.29 516.88C589.205 515.974 588.95 512.854 588.78 511.264C588.769 511.013 588.689 510.769 588.547 510.557C588.405 510.345 588.207 510.172 587.972 510.056C584.556 507.763 581.99 504.508 580.639 500.755C579.674 498.068 579.297 495.223 579.529 492.393C579.761 489.564 580.599 486.808 581.991 484.295C583.382 481.781 585.299 479.562 587.625 477.771C589.95 475.981 592.636 474.657 595.518 473.88C607.401 470.096 618.475 475.108 622.365 486.08C626.765 498.481 623.237 509.17 614.606 511.908C613.523 512.312 612.354 512.469 611.195 512.366C610.035 512.263 608.918 511.903 607.933 511.315C606.948 510.727 606.123 509.927 605.524 508.981C604.926 508.035 604.571 506.969 604.488 505.869C603.915 499.99 604.488 493.267 603.064 489.321C599.536 479.436 585.145 485.536 589.843 498.742C590.648 501.096 591.966 503.263 593.711 505.104C596.347 531.858 595.518 532.482 600.662 542.91H601.151L583.678 548.486C582.423 548.895 581.094 549.063 579.769 548.979C578.445 548.896 577.151 548.563 575.963 548.001C574.776 547.439 573.719 546.658 572.854 545.704C571.988 544.751 571.333 543.643 570.924 542.447L547.542 476.739C547.111 475.55 546.934 474.291 547.022 473.037C547.11 471.782 547.461 470.557 548.055 469.432C548.648 468.308 549.473 467.307 550.48 466.487C551.487 465.668 552.656 465.047 553.919 464.66L623.3 442.516C624.56 442.105 625.893 441.937 627.223 442.021C628.552 442.106 629.85 442.441 631.04 443.007C632.23 443.574 633.289 444.36 634.154 445.32C635.019 446.279 635.672 447.393 636.076 448.596V448.596Z" fill="#B91616"/>
<path opacity="0.2" d="M636.076 448.596L659.458 514.304C659.889 515.493 660.066 516.751 659.978 518.006C659.89 519.26 659.539 520.486 658.945 521.61C658.352 522.735 657.527 523.736 656.52 524.555C655.513 525.375 654.344 525.996 653.081 526.382L604.68 541.823C605.742 537.638 606.235 533.343 606.146 529.04C605.976 526.704 605.275 517.182 605.275 517.182C607.868 519.538 613.331 520.464 618.241 518.914C632.845 514.263 638.839 498.199 633.121 482.396C627.743 467.257 610.653 460.09 593.86 465.445C572.965 472.109 566.609 488.918 571.753 503.392C574.134 510.116 580.894 517.263 587.887 518.008C588.95 518.129 589.375 517.786 589.29 516.88C589.205 515.974 588.95 512.854 588.78 511.264C588.769 511.013 588.689 510.769 588.547 510.557C588.405 510.345 588.207 510.172 587.972 510.056C584.556 507.763 581.99 504.508 580.639 500.755C579.674 498.068 579.297 495.223 579.529 492.393C579.761 489.564 580.599 486.808 581.991 484.295C583.382 481.781 585.299 479.562 587.625 477.771C589.95 475.981 592.636 474.657 595.518 473.88C607.401 470.096 618.475 475.108 622.365 486.08C626.765 498.481 623.237 509.17 614.606 511.908C613.523 512.312 612.354 512.469 611.195 512.366C610.035 512.263 608.918 511.903 607.933 511.315C606.948 510.727 606.123 509.927 605.524 508.981C604.926 508.035 604.571 506.969 604.488 505.869C603.915 499.99 604.488 493.267 603.064 489.321C599.536 479.436 585.145 485.536 589.843 498.742C590.648 501.096 591.966 503.263 593.711 505.104C596.347 531.858 595.518 532.482 600.662 542.91H601.151L583.678 548.486C582.423 548.895 581.094 549.063 579.769 548.979C578.445 548.896 577.151 548.563 575.963 548.001C574.776 547.439 573.719 546.658 572.854 545.704C571.988 544.751 571.333 543.643 570.924 542.447L547.542 476.739C547.111 475.55 546.934 474.291 547.022 473.037C547.11 471.782 547.461 470.557 548.055 469.432C548.648 468.308 549.473 467.307 550.48 466.487C551.487 465.668 552.656 465.047 553.919 464.66L623.3 442.516C624.56 442.105 625.893 441.937 627.223 442.021C628.552 442.106 629.85 442.441 631.04 443.007C632.23 443.574 633.289 444.36 634.154 445.32C635.019 446.279 635.672 447.393 636.076 448.596V448.596Z" fill="#B91616"/>
<path opacity="0.2" d="M636.076 448.596L659.458 514.304C659.889 515.493 660.066 516.751 659.978 518.006C659.89 519.26 659.539 520.486 658.945 521.61C658.352 522.735 657.527 523.736 656.52 524.555C655.513 525.375 654.344 525.996 653.081 526.382L604.68 541.823C605.742 537.638 606.235 533.343 606.146 529.04C605.976 526.704 605.275 517.182 605.275 517.182C607.868 519.538 613.331 520.464 618.241 518.914C632.845 514.263 638.839 498.199 633.121 482.396C627.743 467.257 610.653 460.09 593.86 465.445C572.965 472.109 566.609 488.918 571.753 503.392C574.134 510.116 580.894 517.263 587.887 518.008C588.95 518.129 589.375 517.786 589.29 516.88C589.205 515.974 588.95 512.854 588.78 511.264C588.769 511.013 588.689 510.769 588.547 510.557C588.405 510.345 588.207 510.172 587.972 510.056C584.556 507.763 581.99 504.508 580.639 500.755C579.674 498.068 579.297 495.223 579.529 492.393C579.761 489.564 580.599 486.808 581.991 484.295C583.382 481.781 585.299 479.562 587.625 477.771C589.95 475.981 592.636 474.657 595.518 473.88C607.401 470.096 618.475 475.108 622.365 486.08C626.765 498.481 623.237 509.17 614.606 511.908C613.523 512.312 612.354 512.469 611.195 512.366C610.035 512.263 608.918 511.903 607.933 511.315C606.948 510.727 606.123 509.927 605.524 508.981C604.926 508.035 604.571 506.969 604.488 505.869C603.915 499.99 604.488 493.267 603.064 489.321C599.536 479.436 585.145 485.536 589.843 498.742C590.648 501.096 591.966 503.263 593.711 505.104C596.347 531.858 595.518 532.482 600.662 542.91H601.151L583.678 548.486C582.423 548.895 581.094 549.063 579.769 548.979C578.445 548.896 577.151 548.563 575.963 548.001C574.776 547.439 573.719 546.658 572.854 545.704C571.988 544.751 571.333 543.643 570.924 542.447L547.542 476.739C547.111 475.55 546.934 474.291 547.022 473.037C547.11 471.782 547.461 470.557 548.055 469.432C548.648 468.308 549.473 467.307 550.48 466.487C551.487 465.668 552.656 465.047 553.919 464.66L623.3 442.516C624.56 442.105 625.893 441.937 627.223 442.021C628.552 442.106 629.85 442.441 631.04 443.007C632.23 443.574 633.289 444.36 634.154 445.32C635.019 446.279 635.672 447.393 636.076 448.596V448.596Z" fill="#B91616"/>
<path opacity="0.2" d="M636.076 448.596L659.458 514.304C659.889 515.493 660.066 516.751 659.978 518.006C659.89 519.26 659.539 520.486 658.945 521.61C658.352 522.735 657.527 523.736 656.52 524.555C655.513 525.375 654.344 525.996 653.081 526.382L604.68 541.823C605.742 537.638 606.235 533.343 606.146 529.04C605.976 526.704 605.275 517.182 605.275 517.182C607.868 519.538 613.331 520.464 618.241 518.914C632.845 514.263 638.839 498.199 633.121 482.396C627.743 467.257 610.653 460.09 593.86 465.445C572.965 472.109 566.609 488.918 571.753 503.392C574.134 510.116 580.894 517.263 587.887 518.008C588.95 518.129 589.375 517.786 589.29 516.88C589.205 515.974 588.95 512.854 588.78 511.264C588.769 511.013 588.689 510.769 588.547 510.557C588.405 510.345 588.207 510.172 587.972 510.056C584.556 507.763 581.99 504.508 580.639 500.755C579.674 498.068 579.297 495.223 579.529 492.393C579.761 489.564 580.599 486.808 581.991 484.295C583.382 481.781 585.299 479.562 587.625 477.771C589.95 475.981 592.636 474.657 595.518 473.88C607.401 470.096 618.475 475.108 622.365 486.08C626.765 498.481 623.237 509.17 614.606 511.908C613.523 512.312 612.354 512.469 611.195 512.366C610.035 512.263 608.918 511.903 607.933 511.315C606.948 510.727 606.123 509.927 605.524 508.981C604.926 508.035 604.571 506.969 604.488 505.869C603.915 499.99 604.488 493.267 603.064 489.321C599.536 479.436 585.145 485.536 589.843 498.742C590.648 501.096 591.966 503.263 593.711 505.104C596.347 531.858 595.518 532.482 600.662 542.91H601.151L583.678 548.486C582.423 548.895 581.094 549.063 579.769 548.979C578.445 548.896 577.151 548.563 575.963 548.001C574.776 547.439 573.719 546.658 572.854 545.704C571.988 544.751 571.333 543.643 570.924 542.447L547.542 476.739C547.111 475.55 546.934 474.291 547.022 473.037C547.11 471.782 547.461 470.557 548.055 469.432C548.648 468.308 549.473 467.307 550.48 466.487C551.487 465.668 552.656 465.047 553.919 464.66L623.3 442.516C624.56 442.105 625.893 441.937 627.223 442.021C628.552 442.106 629.85 442.441 631.04 443.007C632.23 443.574 633.289 444.36 634.154 445.32C635.019 446.279 635.672 447.393 636.076 448.596V448.596Z" fill="#B91616"/>
<path opacity="0.2" d="M636.076 448.596L659.458 514.304C659.889 515.493 660.066 516.751 659.978 518.006C659.89 519.26 659.539 520.486 658.945 521.61C658.352 522.735 657.527 523.736 656.52 524.555C655.513 525.375 654.344 525.996 653.081 526.382L604.68 541.823C605.742 537.638 606.235 533.343 606.146 529.04C605.976 526.704 605.275 517.182 605.275 517.182C607.868 519.538 613.331 520.464 618.241 518.914C632.845 514.263 638.839 498.199 633.121 482.396C627.743 467.257 610.653 460.09 593.86 465.445C572.965 472.109 566.609 488.918 571.753 503.392C574.134 510.116 580.894 517.263 587.887 518.008C588.95 518.129 589.375 517.786 589.29 516.88C589.205 515.974 588.95 512.854 588.78 511.264C588.769 511.013 588.689 510.769 588.547 510.557C588.405 510.345 588.207 510.172 587.972 510.056C584.556 507.763 581.99 504.508 580.639 500.755C579.674 498.068 579.297 495.223 579.529 492.393C579.761 489.564 580.599 486.808 581.991 484.295C583.382 481.781 585.299 479.562 587.625 477.771C589.95 475.981 592.636 474.657 595.518 473.88C607.401 470.096 618.475 475.108 622.365 486.08C626.765 498.481 623.237 509.17 614.606 511.908C613.523 512.312 612.354 512.469 611.195 512.366C610.035 512.263 608.918 511.903 607.933 511.315C606.948 510.727 606.123 509.927 605.524 508.981C604.926 508.035 604.571 506.969 604.488 505.869C603.915 499.99 604.488 493.267 603.064 489.321C599.536 479.436 585.145 485.536 589.843 498.742C590.648 501.096 591.966 503.263 593.711 505.104C596.347 531.858 595.518 532.482 600.662 542.91H601.151L583.678 548.486C582.423 548.895 581.094 549.063 579.769 548.979C578.445 548.896 577.151 548.563 575.963 548.001C574.776 547.439 573.719 546.658 572.854 545.704C571.988 544.751 571.333 543.643 570.924 542.447L547.542 476.739C547.111 475.55 546.934 474.291 547.022 473.037C547.11 471.782 547.461 470.557 548.055 469.432C548.648 468.308 549.473 467.307 550.48 466.487C551.487 465.668 552.656 465.047 553.919 464.66L623.3 442.516C624.56 442.105 625.893 441.937 627.223 442.021C628.552 442.106 629.85 442.441 631.04 443.007C632.23 443.574 633.289 444.36 634.154 445.32C635.019 446.279 635.672 447.393 636.076 448.596V448.596Z" fill="#B91616"/>
<path opacity="0.2" d="M664.329 48.4506C662.653 53.3621 662.482 58.6552 663.837 63.6628C665.193 68.6704 668.014 73.1682 671.945 76.5891C675.876 80.0101 680.741 82.2012 685.927 82.886C691.113 83.5708 696.387 82.7188 701.085 80.4373C705.783 78.1559 709.694 74.5471 712.325 70.066C714.956 65.5849 716.19 60.4321 715.871 55.2571C715.551 50.0822 713.693 45.1168 710.53 40.987C707.367 36.8572 703.041 33.7479 698.098 32.051C694.795 30.9171 691.298 30.4422 687.809 30.6538C684.319 30.8653 680.907 31.7591 677.768 33.2835C674.629 34.8079 671.825 36.9329 669.519 39.536C667.212 42.1391 665.448 45.1689 664.329 48.4506V48.4506ZM705.842 62.5883C704.735 65.7929 702.695 68.6003 699.978 70.6556C697.261 72.7109 693.991 73.9218 690.58 74.1351C687.169 74.3485 683.771 73.5547 680.815 71.8542C677.859 70.1537 675.478 67.6228 673.974 64.5816C672.469 61.5403 671.908 58.1252 672.362 54.7681C672.816 51.411 674.264 48.2627 676.523 45.7211C678.783 43.1796 681.752 41.359 685.055 40.4895C688.358 39.6201 691.847 39.7408 695.081 40.8365C699.413 42.3152 702.977 45.4341 704.994 49.5106C707.01 53.5872 707.315 58.2894 705.842 62.5883ZM674.274 16.338C675.404 16.7421 676.389 17.4672 677.105 18.4226C677.822 19.3781 678.239 20.5216 678.303 21.7103C678.368 22.8991 678.078 24.0804 677.47 25.1068C676.861 26.1332 675.961 26.9592 674.881 27.4816C673.802 28.004 672.591 28.1998 671.4 28.0443C670.209 27.8889 669.091 27.3892 668.185 26.6076C667.278 25.8261 666.625 24.7973 666.305 23.6497C665.985 22.5022 666.014 21.2867 666.387 20.1551C666.641 19.384 667.049 18.6714 667.587 18.0595C668.124 17.4475 668.78 16.9487 669.515 16.5927C670.251 16.2368 671.051 16.0308 671.869 15.987C672.686 15.9432 673.504 16.0626 674.274 16.338V16.338ZM685.931 1.83679C677.942 -0.465629 670.361 -1.05133 662.657 2.72544C654.954 6.50221 650.776 12.8238 647.699 20.4177C644.621 28.0116 636.143 52.3486 633.841 60.5484C631.538 68.7482 630.947 75.9584 634.717 83.613C638.487 91.2675 644.907 95.3876 652.569 98.4373C660.232 101.487 684.79 109.889 693.064 112.171C701.338 114.453 708.634 115.059 716.338 111.282C724.041 107.506 728.219 101.184 731.296 93.5901C734.374 85.9962 742.851 61.6592 745.154 53.4594C747.457 45.2595 748.069 38.0292 744.258 30.3948C740.447 22.7605 734.068 18.6202 726.405 15.5705C718.742 12.5208 694.205 4.1392 685.931 1.83679V1.83679ZM731.5 28.8801C733.321 30.4226 734.803 32.319 735.855 34.452C736.907 36.585 737.505 38.9092 737.614 41.2808C737.96 48.5516 732.132 63.4971 729.686 70.6265C727.241 77.7559 722.553 93.1054 717.805 98.619C716.248 100.424 714.335 101.893 712.182 102.935C710.03 103.977 707.685 104.57 705.292 104.678C697.955 105.021 682.874 99.2451 675.68 96.8215C668.486 94.3979 652.998 89.7527 647.434 85.0469C645.613 83.5044 644.131 81.608 643.079 79.475C642.027 77.342 641.429 75.0177 641.32 72.6461C640.974 65.3754 646.802 50.4299 649.248 43.3005C651.693 36.171 656.381 20.8216 661.129 15.308C662.685 13.5033 664.599 12.0344 666.751 10.9922C668.904 9.95001 671.249 9.35672 673.642 9.24898C680.979 8.90563 696.06 14.6818 703.254 17.1054C710.448 19.529 725.957 24.1743 731.52 28.9003L731.5 28.8801Z" fill="#B91616"/>
<path opacity="0.2" d="M664.329 48.4506C662.653 53.3621 662.482 58.6552 663.837 63.6628C665.193 68.6704 668.014 73.1682 671.945 76.5891C675.876 80.0101 680.741 82.2012 685.927 82.886C691.113 83.5708 696.387 82.7188 701.085 80.4373C705.783 78.1559 709.694 74.5471 712.325 70.066C714.956 65.5849 716.19 60.4321 715.871 55.2571C715.551 50.0822 713.693 45.1168 710.53 40.987C707.367 36.8572 703.041 33.7479 698.098 32.051C694.795 30.9171 691.298 30.4422 687.809 30.6538C684.319 30.8653 680.907 31.7591 677.768 33.2835C674.629 34.8079 671.825 36.9329 669.519 39.536C667.212 42.1391 665.448 45.1689 664.329 48.4506V48.4506ZM705.842 62.5883C704.735 65.7929 702.695 68.6003 699.978 70.6556C697.261 72.7109 693.991 73.9218 690.58 74.1351C687.169 74.3485 683.771 73.5547 680.815 71.8542C677.859 70.1537 675.478 67.6228 673.974 64.5816C672.469 61.5403 671.908 58.1252 672.362 54.7681C672.816 51.411 674.264 48.2627 676.523 45.7211C678.783 43.1796 681.752 41.359 685.055 40.4895C688.358 39.6201 691.847 39.7408 695.081 40.8365C699.413 42.3152 702.977 45.4341 704.994 49.5106C707.01 53.5872 707.315 58.2894 705.842 62.5883ZM674.274 16.338C675.404 16.7421 676.389 17.4672 677.105 18.4226C677.822 19.3781 678.239 20.5216 678.303 21.7103C678.368 22.8991 678.078 24.0804 677.47 25.1068C676.861 26.1332 675.961 26.9592 674.881 27.4816C673.802 28.004 672.591 28.1998 671.4 28.0443C670.209 27.8889 669.091 27.3892 668.185 26.6076C667.278 25.8261 666.625 24.7973 666.305 23.6497C665.985 22.5022 666.014 21.2867 666.387 20.1551C666.641 19.384 667.049 18.6714 667.587 18.0595C668.124 17.4475 668.78 16.9487 669.515 16.5927C670.251 16.2368 671.051 16.0308 671.869 15.987C672.686 15.9432 673.504 16.0626 674.274 16.338V16.338ZM685.931 1.83679C677.942 -0.465629 670.361 -1.05133 662.657 2.72544C654.954 6.50221 650.776 12.8238 647.699 20.4177C644.621 28.0116 636.143 52.3486 633.841 60.5484C631.538 68.7482 630.947 75.9584 634.717 83.613C638.487 91.2675 644.907 95.3876 652.569 98.4373C660.232 101.487 684.79 109.889 693.064 112.171C701.338 114.453 708.634 115.059 716.338 111.282C724.041 107.506 728.219 101.184 731.296 93.5901C734.374 85.9962 742.851 61.6592 745.154 53.4594C747.457 45.2595 748.069 38.0292 744.258 30.3948C740.447 22.7605 734.068 18.6202 726.405 15.5705C718.742 12.5208 694.205 4.1392 685.931 1.83679V1.83679ZM731.5 28.8801C733.321 30.4226 734.803 32.319 735.855 34.452C736.907 36.585 737.505 38.9092 737.614 41.2808C737.96 48.5516 732.132 63.4971 729.686 70.6265C727.241 77.7559 722.553 93.1054 717.805 98.619C716.248 100.424 714.335 101.893 712.182 102.935C710.03 103.977 707.685 104.57 705.292 104.678C697.955 105.021 682.874 99.2451 675.68 96.8215C668.486 94.3979 652.998 89.7527 647.434 85.0469C645.613 83.5044 644.131 81.608 643.079 79.475C642.027 77.342 641.429 75.0177 641.32 72.6461C640.974 65.3754 646.802 50.4299 649.248 43.3005C651.693 36.171 656.381 20.8216 661.129 15.308C662.685 13.5033 664.599 12.0344 666.751 10.9922C668.904 9.95001 671.249 9.35672 673.642 9.24898C680.979 8.90563 696.06 14.6818 703.254 17.1054C710.448 19.529 725.957 24.1743 731.52 28.9003L731.5 28.8801Z" fill="#B91616"/>
<path opacity="0.2" d="M664.329 48.4506C662.653 53.3621 662.482 58.6552 663.837 63.6628C665.193 68.6704 668.014 73.1682 671.945 76.5891C675.876 80.0101 680.741 82.2012 685.927 82.886C691.113 83.5708 696.387 82.7188 701.085 80.4373C705.783 78.1559 709.694 74.5471 712.325 70.066C714.956 65.5849 716.19 60.4321 715.871 55.2571C715.551 50.0822 713.693 45.1168 710.53 40.987C707.367 36.8572 703.041 33.7479 698.098 32.051C694.795 30.9171 691.298 30.4422 687.809 30.6538C684.319 30.8653 680.907 31.7591 677.768 33.2835C674.629 34.8079 671.825 36.9329 669.519 39.536C667.212 42.1391 665.448 45.1689 664.329 48.4506V48.4506ZM705.842 62.5883C704.735 65.7929 702.695 68.6003 699.978 70.6556C697.261 72.7109 693.991 73.9218 690.58 74.1351C687.169 74.3485 683.771 73.5547 680.815 71.8542C677.859 70.1537 675.478 67.6228 673.974 64.5816C672.469 61.5403 671.908 58.1252 672.362 54.7681C672.816 51.411 674.264 48.2627 676.523 45.7211C678.783 43.1796 681.752 41.359 685.055 40.4895C688.358 39.6201 691.847 39.7408 695.081 40.8365C699.413 42.3152 702.977 45.4341 704.994 49.5106C707.01 53.5872 707.315 58.2894 705.842 62.5883ZM674.274 16.338C675.404 16.7421 676.389 17.4672 677.105 18.4226C677.822 19.3781 678.239 20.5216 678.303 21.7103C678.368 22.8991 678.078 24.0804 677.47 25.1068C676.861 26.1332 675.961 26.9592 674.881 27.4816C673.802 28.004 672.591 28.1998 671.4 28.0443C670.209 27.8889 669.091 27.3892 668.185 26.6076C667.278 25.8261 666.625 24.7973 666.305 23.6497C665.985 22.5022 666.014 21.2867 666.387 20.1551C666.641 19.384 667.049 18.6714 667.587 18.0595C668.124 17.4475 668.78 16.9487 669.515 16.5927C670.251 16.2368 671.051 16.0308 671.869 15.987C672.686 15.9432 673.504 16.0626 674.274 16.338V16.338ZM685.931 1.83679C677.942 -0.465629 670.361 -1.05133 662.657 2.72544C654.954 6.50221 650.776 12.8238 647.699 20.4177C644.621 28.0116 636.143 52.3486 633.841 60.5484C631.538 68.7482 630.947 75.9584 634.717 83.613C638.487 91.2675 644.907 95.3876 652.569 98.4373C660.232 101.487 684.79 109.889 693.064 112.171C701.338 114.453 708.634 115.059 716.338 111.282C724.041 107.506 728.219 101.184 731.296 93.5901C734.374 85.9962 742.851 61.6592 745.154 53.4594C747.457 45.2595 748.069 38.0292 744.258 30.3948C740.447 22.7605 734.068 18.6202 726.405 15.5705C718.742 12.5208 694.205 4.1392 685.931 1.83679V1.83679ZM731.5 28.8801C733.321 30.4226 734.803 32.319 735.855 34.452C736.907 36.585 737.505 38.9092 737.614 41.2808C737.96 48.5516 732.132 63.4971 729.686 70.6265C727.241 77.7559 722.553 93.1054 717.805 98.619C716.248 100.424 714.335 101.893 712.182 102.935C710.03 103.977 707.685 104.57 705.292 104.678C697.955 105.021 682.874 99.2451 675.68 96.8215C668.486 94.3979 652.998 89.7527 647.434 85.0469C645.613 83.5044 644.131 81.608 643.079 79.475C642.027 77.342 641.429 75.0177 641.32 72.6461C640.974 65.3754 646.802 50.4299 649.248 43.3005C651.693 36.171 656.381 20.8216 661.129 15.308C662.685 13.5033 664.599 12.0344 666.751 10.9922C668.904 9.95001 671.249 9.35672 673.642 9.24898C680.979 8.90563 696.06 14.6818 703.254 17.1054C710.448 19.529 725.957 24.1743 731.52 28.9003L731.5 28.8801Z" fill="#B91616"/>
<path opacity="0.2" d="M664.329 48.4506C662.653 53.3621 662.482 58.6552 663.837 63.6628C665.193 68.6704 668.014 73.1682 671.945 76.5891C675.876 80.0101 680.741 82.2012 685.927 82.886C691.113 83.5708 696.387 82.7188 701.085 80.4373C705.783 78.1559 709.694 74.5471 712.325 70.066C714.956 65.5849 716.19 60.4321 715.871 55.2571C715.551 50.0822 713.693 45.1168 710.53 40.987C707.367 36.8572 703.041 33.7479 698.098 32.051C694.795 30.9171 691.298 30.4422 687.809 30.6538C684.319 30.8653 680.907 31.7591 677.768 33.2835C674.629 34.8079 671.825 36.9329 669.519 39.536C667.212 42.1391 665.448 45.1689 664.329 48.4506V48.4506ZM705.842 62.5883C704.735 65.7929 702.695 68.6003 699.978 70.6556C697.261 72.7109 693.991 73.9218 690.58 74.1351C687.169 74.3485 683.771 73.5547 680.815 71.8542C677.859 70.1537 675.478 67.6228 673.974 64.5816C672.469 61.5403 671.908 58.1252 672.362 54.7681C672.816 51.411 674.264 48.2627 676.523 45.7211C678.783 43.1796 681.752 41.359 685.055 40.4895C688.358 39.6201 691.847 39.7408 695.081 40.8365C699.413 42.3152 702.977 45.4341 704.994 49.5106C707.01 53.5872 707.315 58.2894 705.842 62.5883ZM674.274 16.338C675.404 16.7421 676.389 17.4672 677.105 18.4226C677.822 19.3781 678.239 20.5216 678.303 21.7103C678.368 22.8991 678.078 24.0804 677.47 25.1068C676.861 26.1332 675.961 26.9592 674.881 27.4816C673.802 28.004 672.591 28.1998 671.4 28.0443C670.209 27.8889 669.091 27.3892 668.185 26.6076C667.278 25.8261 666.625 24.7973 666.305 23.6497C665.985 22.5022 666.014 21.2867 666.387 20.1551C666.641 19.384 667.049 18.6714 667.587 18.0595C668.124 17.4475 668.78 16.9487 669.515 16.5927C670.251 16.2368 671.051 16.0308 671.869 15.987C672.686 15.9432 673.504 16.0626 674.274 16.338V16.338ZM685.931 1.83679C677.942 -0.465629 670.361 -1.05133 662.657 2.72544C654.954 6.50221 650.776 12.8238 647.699 20.4177C644.621 28.0116 636.143 52.3486 633.841 60.5484C631.538 68.7482 630.947 75.9584 634.717 83.613C638.487 91.2675 644.907 95.3876 652.569 98.4373C660.232 101.487 684.79 109.889 693.064 112.171C701.338 114.453 708.634 115.059 716.338 111.282C724.041 107.506 728.219 101.184 731.296 93.5901C734.374 85.9962 742.851 61.6592 745.154 53.4594C747.457 45.2595 748.069 38.0292 744.258 30.3948C740.447 22.7605 734.068 18.6202 726.405 15.5705C718.742 12.5208 694.205 4.1392 685.931 1.83679V1.83679ZM731.5 28.8801C733.321 30.4226 734.803 32.319 735.855 34.452C736.907 36.585 737.505 38.9092 737.614 41.2808C737.96 48.5516 732.132 63.4971 729.686 70.6265C727.241 77.7559 722.553 93.1054 717.805 98.619C716.248 100.424 714.335 101.893 712.182 102.935C710.03 103.977 707.685 104.57 705.292 104.678C697.955 105.021 682.874 99.2451 675.68 96.8215C668.486 94.3979 652.998 89.7527 647.434 85.0469C645.613 83.5044 644.131 81.608 643.079 79.475C642.027 77.342 641.429 75.0177 641.32 72.6461C640.974 65.3754 646.802 50.4299 649.248 43.3005C651.693 36.171 656.381 20.8216 661.129 15.308C662.685 13.5033 664.599 12.0344 666.751 10.9922C668.904 9.95001 671.249 9.35672 673.642 9.24898C680.979 8.90563 696.06 14.6818 703.254 17.1054C710.448 19.529 725.957 24.1743 731.52 28.9003L731.5 28.8801Z" fill="#B91616"/>
<path opacity="0.2" d="M664.329 48.4506C662.653 53.3621 662.482 58.6552 663.837 63.6628C665.193 68.6704 668.014 73.1682 671.945 76.5891C675.876 80.0101 680.741 82.2012 685.927 82.886C691.113 83.5708 696.387 82.7188 701.085 80.4373C705.783 78.1559 709.694 74.5471 712.325 70.066C714.956 65.5849 716.19 60.4321 715.871 55.2571C715.551 50.0822 713.693 45.1168 710.53 40.987C707.367 36.8572 703.041 33.7479 698.098 32.051C694.795 30.9171 691.298 30.4422 687.809 30.6538C684.319 30.8653 680.907 31.7591 677.768 33.2835C674.629 34.8079 671.825 36.9329 669.519 39.536C667.212 42.1391 665.448 45.1689 664.329 48.4506V48.4506ZM705.842 62.5883C704.735 65.7929 702.695 68.6003 699.978 70.6556C697.261 72.7109 693.991 73.9218 690.58 74.1351C687.169 74.3485 683.771 73.5547 680.815 71.8542C677.859 70.1537 675.478 67.6228 673.974 64.5816C672.469 61.5403 671.908 58.1252 672.362 54.7681C672.816 51.411 674.264 48.2627 676.523 45.7211C678.783 43.1796 681.752 41.359 685.055 40.4895C688.358 39.6201 691.847 39.7408 695.081 40.8365C699.413 42.3152 702.977 45.4341 704.994 49.5106C707.01 53.5872 707.315 58.2894 705.842 62.5883ZM674.274 16.338C675.404 16.7421 676.389 17.4672 677.105 18.4226C677.822 19.3781 678.239 20.5216 678.303 21.7103C678.368 22.8991 678.078 24.0804 677.47 25.1068C676.861 26.1332 675.961 26.9592 674.881 27.4816C673.802 28.004 672.591 28.1998 671.4 28.0443C670.209 27.8889 669.091 27.3892 668.185 26.6076C667.278 25.8261 666.625 24.7973 666.305 23.6497C665.985 22.5022 666.014 21.2867 666.387 20.1551C666.641 19.384 667.049 18.6714 667.587 18.0595C668.124 17.4475 668.78 16.9487 669.515 16.5927C670.251 16.2368 671.051 16.0308 671.869 15.987C672.686 15.9432 673.504 16.0626 674.274 16.338V16.338ZM685.931 1.83679C677.942 -0.465629 670.361 -1.05133 662.657 2.72544C654.954 6.50221 650.776 12.8238 647.699 20.4177C644.621 28.0116 636.143 52.3486 633.841 60.5484C631.538 68.7482 630.947 75.9584 634.717 83.613C638.487 91.2675 644.907 95.3876 652.569 98.4373C660.232 101.487 684.79 109.889 693.064 112.171C701.338 114.453 708.634 115.059 716.338 111.282C724.041 107.506 728.219 101.184 731.296 93.5901C734.374 85.9962 742.851 61.6592 745.154 53.4594C747.457 45.2595 748.069 38.0292 744.258 30.3948C740.447 22.7605 734.068 18.6202 726.405 15.5705C718.742 12.5208 694.205 4.1392 685.931 1.83679V1.83679ZM731.5 28.8801C733.321 30.4226 734.803 32.319 735.855 34.452C736.907 36.585 737.505 38.9092 737.614 41.2808C737.96 48.5516 732.132 63.4971 729.686 70.6265C727.241 77.7559 722.553 93.1054 717.805 98.619C716.248 100.424 714.335 101.893 712.182 102.935C710.03 103.977 707.685 104.57 705.292 104.678C697.955 105.021 682.874 99.2451 675.68 96.8215C668.486 94.3979 652.998 89.7527 647.434 85.0469C645.613 83.5044 644.131 81.608 643.079 79.475C642.027 77.342 641.429 75.0177 641.32 72.6461C640.974 65.3754 646.802 50.4299 649.248 43.3005C651.693 36.171 656.381 20.8216 661.129 15.308C662.685 13.5033 664.599 12.0344 666.751 10.9922C668.904 9.95001 671.249 9.35672 673.642 9.24898C680.979 8.90563 696.06 14.6818 703.254 17.1054C710.448 19.529 725.957 24.1743 731.52 28.9003L731.5 28.8801Z" fill="#B91616"/>
<path d="M457.637 157.923C422.296 75.1666 352.403 71.3121 352.403 71.3121C352.403 71.3121 284.288 59.2396 240.591 185.273C199.864 302.751 143.653 416.165 231.551 443.675L247.427 375.182L257.259 448.771C269.773 450.019 282.326 450.317 294.863 449.663C388.985 445.452 478.62 450.898 475.735 404.093C471.888 341.843 491.633 237.547 457.637 157.923Z" fill="#2F2E41"/>
<path d="M418 154.306C420.399 157.394 423.697 159.907 427.576 161.603C431.455 163.298 435.784 164.119 440.146 163.986C451.356 163.535 460.702 156.909 469.115 150.618L494 132.01L477.531 131.342C465.687 130.862 453.537 130.414 442.257 133.508C430.976 136.601 420.572 144.046 418.509 153.935" fill="#EE6969"/>
<path d="M422.524 154.063C426.562 153.139 430.607 151.56 434.269 149.479C437.931 147.399 441.086 144.886 443.431 142.184C449.362 135.22 448.872 128.304 448.148 122.02L446.005 103.435L436.136 113.429C429.038 120.617 421.796 127.998 418.123 135.474C414.45 142.951 415.054 150.662 422.488 153.685" fill="#EDAB8C"/>
<path d="M280.241 450L207.149 497.869C207.149 497.869 164.512 540 194.967 540C225.423 540 237.605 503.615 237.605 503.615L331 465.315L280.241 450Z" fill="#FFB8B8"/>
<path d="M309.668 263C309.668 263 245.667 450.064 265.984 459.652C286.3 469.24 331 475 331 475L309.668 263Z" fill="#F6AE2D"/>
<path opacity="0.1" d="M302.977 276C302.977 276 239.904 463.064 259.926 472.652C279.948 482.24 324 488 324 488L302.977 276Z" fill="#F6AE2D"/>
<path d="M511 499H367L469.309 450C471.565 451.384 473.728 452.898 475.787 454.535C490.957 466.619 503.003 481.829 511 499Z" fill="#2F2E41"/>
<path d="M351 215C380.271 215 404 192.39 404 164.5C404 136.61 380.271 114 351 114C321.729 114 298 136.61 298 164.5C298 192.39 321.729 215 351 215Z" fill="#FFB8B8"/>
<path d="M349.288 205.239C349.288 205.239 361.599 242.126 349.288 255.717C336.976 269.309 417 236.302 417 236.302C417 236.302 388.274 197.474 396.481 180L349.288 205.239Z" fill="#FFB8B8"/>
<path d="M466.745 373.126L462.47 399.359C462.47 399.359 464.628 405.318 467.254 413.999C470.675 425.324 474.889 441.279 476.089 454.66C477.331 468.227 475.457 479.148 466.541 479.838C453.755 480.834 447.097 488.134 440.459 499H293.174C293.562 493.022 294.029 486.813 294.58 480.433C294.885 476.6 295.222 472.716 295.591 468.782C295.999 464.26 310.42 379.317 299.581 361.036C277.192 323.289 305.69 301.635 305.69 301.635C305.69 301.635 309.762 272.892 309.762 263.313C309.762 255.801 341.034 247.121 354.554 243.71C355.43 243.499 356.204 243.288 356.913 243.136C359.254 242.561 360.659 242.235 360.659 242.235L371.348 238.111C371.348 238.111 401.378 232.65 403.416 228.817C404.718 227.165 406.542 225.944 408.628 225.328C412.923 223.604 418.402 222.376 419.705 221.15C421.565 219.137 423.247 216.983 424.733 214.711C428.637 210.496 433.9 207.6 439.718 206.464C461.585 201.271 493 211.561 493 211.561L482.006 279.106L466.745 373.126Z" fill="#F6AE2D"/>
<path d="M530.592 330L457.993 378.933C457.993 378.933 415.643 422 445.894 422C476.144 422 488.234 384.813 488.234 384.813L581 345.662L530.592 330Z" fill="#FFB8B8"/>
<path d="M404.98 117.931L362.61 97L336.037 100.885C326.619 102.264 317.859 106.283 310.893 112.419C303.928 118.555 299.078 126.525 296.975 135.294L292 156L322.135 154.906L330.554 136.374V154.6L344.459 154.096L352.527 124.592L357.569 155.998L407 155.047L404.98 117.931Z" fill="#2F2E41"/>
<path d="M479.008 214.847L493.184 211C493.184 211 636.966 266.784 632.916 314.873C628.866 362.962 634.941 362.956 610.64 364.886C586.339 366.815 515.467 343.726 517.478 339.879C519.49 336.033 533.678 316.793 533.678 316.793L479 276.397L479.008 214.847Z" fill="#F6AE2D"/>
<path d="M403 173C407.418 173 411 169.642 411 165.5C411 161.358 407.418 158 403 158C398.582 158 395 161.358 395 165.5C395 169.642 398.582 173 403 173Z" fill="#FFB8B8"/>
</g>
<defs>
<clipPath id="clip0">
<rect width="856.363" height="548.704" fill="white"/>
</clipPath>
</defs>
</svg>
