<svg width="929" height="636" viewBox="0 0 929 636" fill="none" xmlns="http://www.w3.org/2000/svg">
<g clip-path="url(#clip0)">
<path d="M546.409 466C675.091 466 779.409 361.682 779.409 233C779.409 104.318 675.091 0 546.409 0C417.726 0 313.409 104.318 313.409 233C313.409 361.682 417.726 466 546.409 466Z" fill="#E8E8E8"/>
<path opacity="0.2" d="M576.025 143.009L576.409 187.733C576.416 188.534 576.312 189.329 576.103 190.073C575.894 190.816 575.584 191.494 575.191 192.067C574.798 192.64 574.329 193.098 573.811 193.414C573.293 193.729 572.737 193.897 572.174 193.907L564.551 194.034L564.355 171.525L569.77 171.436L570.476 162.837L564.283 162.939L564.238 157.451C564.238 154.911 564.685 153.259 567.196 153.221H570.395L570.333 145.6C568.782 145.391 567.225 145.302 565.668 145.333C561.057 145.409 557.929 149.474 557.992 156.765L558.046 163.116L552.612 163.205L552.684 171.792L558.126 171.703L558.323 194.199L540.728 194.504C540.164 194.514 539.605 194.366 539.082 194.069C538.559 193.772 538.082 193.331 537.679 192.772C537.275 192.213 536.954 191.546 536.732 190.81C536.509 190.074 536.392 189.284 536.385 188.483L536 143.758C535.993 142.957 536.097 142.163 536.306 141.419C536.515 140.675 536.825 139.998 537.219 139.424C537.612 138.851 538.081 138.394 538.599 138.078C539.116 137.762 539.673 137.595 540.236 137.585L571.682 137C572.818 136.98 573.914 137.601 574.728 138.728C575.542 139.854 576.009 141.394 576.025 143.009Z" fill="black"/>
<path d="M636.785 306.489C635.639 299.333 634.461 292.085 635.265 284.852C635.978 278.429 638.264 272.155 642.917 267.011C645.387 264.286 648.392 261.951 651.798 260.111C652.686 259.63 653.504 260.837 652.62 261.316C646.727 264.509 642.168 269.224 639.603 274.782C636.769 280.962 636.314 287.699 636.802 294.264C637.097 298.234 637.723 302.179 638.354 306.118C638.404 306.296 638.373 306.484 638.267 306.643C638.162 306.802 637.99 306.921 637.786 306.976C637.578 307.024 637.356 307 637.169 306.908C636.981 306.817 636.843 306.666 636.785 306.489Z" fill="white"/>
<path d="M566.333 325.681C586.55 314.57 611.712 316.8 633.494 324.397C655.277 331.994 675.016 344.44 696.17 353.646C760.81 381.777 838.718 377.241 899.657 341.798C905.42 355.204 899.237 370.538 892.445 383.454C885.654 396.369 877.913 410.368 880.709 424.69C884.287 443.017 903.502 454.005 911.288 470.978C918.679 487.09 914.712 506.01 909.042 522.805C903.372 539.6 896.014 556.52 896.977 574.22C897.941 591.92 910.8 610.636 928.526 610.65C902.257 614.732 875.47 618.816 849.217 614.633C822.964 610.45 796.848 596.566 784.659 572.94C778.566 561.132 776.217 547.554 769.22 536.258C757.302 517.018 734.429 507.97 712.848 501.15C691.267 494.331 668.172 487.762 652.977 470.988C638.499 455.006 633.913 432.742 626.243 412.587C613.324 378.849 590.886 349.587 561.654 328.358" fill="#CE796B"/>
<path d="M681.679 240.063C665.673 230.977 644.952 223.491 626.353 222.183C607.754 220.875 592.997 227.111 596.151 237.353C597.581 241.997 602.306 247.531 598.884 250.803C596.25 253.322 589.556 253.542 583.141 253.215C576.725 252.889 569.812 252.172 564.773 253.306C559.734 254.44 557.626 258.305 562.506 261.744C564.114 262.877 566.262 263.818 567.806 264.969C569.104 266.01 569.927 267.151 570.16 268.233C570.394 269.315 570.026 270.284 569.108 271.004C567.13 272.416 564.278 273.321 560.851 273.624C553.908 274.537 544.872 275.264 545.664 279.661C546.074 280.894 546.989 282.164 548.332 283.361C549.675 284.559 551.405 285.65 553.377 286.541C557.465 288.413 561.81 290.002 566.267 291.255L747.04 347.081C752.968 349.057 759.047 350.641 765.121 351.794C768.07 352.363 770.968 352.593 773.633 352.47C776.298 352.346 778.673 351.871 780.609 351.074C785.043 348.806 783.937 344.098 780.534 339.783C777.132 335.467 771.757 331.279 767.554 327.002C763.351 322.725 760.264 318.016 762.209 314.637C763.766 311.933 768.265 310.514 771.74 308.656C775.214 306.799 777.747 303.951 774.954 300.498C771.019 295.631 759.081 292.49 754.401 287.66C750.869 284.016 752.698 280.783 753.183 277.55C754.349 269.776 746.248 259.753 732.742 252.26C725.857 248.509 718.06 245.484 709.996 243.435C701.931 241.387 693.829 240.373 686.359 240.478L681.679 240.063Z" fill="#2F2E41"/>
<path d="M542.385 622.099L530.644 618.571L538.663 571.604L555.992 576.811L542.385 622.099Z" fill="#FFC8AE"/>
<path d="M541.96 634.38L504.102 623.005L504.246 622.526C504.827 620.591 505.784 618.79 507.061 617.224C508.339 615.659 509.912 614.36 511.692 613.403C513.471 612.446 515.422 611.848 517.432 611.645C519.442 611.442 521.473 611.636 523.408 612.218L523.409 612.218L546.532 619.165L541.96 634.38Z" fill="#CE796B"/>
<path d="M653.182 622.496L640.922 622.495L635.09 575.207L653.184 575.208L653.182 622.496Z" fill="#FFC8AE"/>
<path d="M656.308 634.38L616.778 634.378V633.878C616.778 631.858 617.176 629.857 617.949 627.99C618.722 626.124 619.856 624.427 621.284 622.999C622.713 621.57 624.409 620.436 626.276 619.663C628.143 618.89 630.144 618.492 632.164 618.492H632.165L656.309 618.493L656.308 634.38Z" fill="#CE796B"/>
<path d="M636.163 586.73C635.094 586.729 634.059 586.348 633.245 585.653C632.431 584.959 631.891 583.998 631.722 582.942L613.519 469.387C613.398 468.635 613.035 467.943 612.486 467.415C611.936 466.888 611.229 466.554 610.473 466.465C609.716 466.376 608.951 466.536 608.294 466.921C607.636 467.306 607.123 467.894 606.83 468.598L559.669 582.134C559.23 583.182 558.411 584.026 557.377 584.498C556.343 584.969 555.17 585.034 554.09 584.678L537.056 578.999C535.995 578.649 535.103 577.916 534.555 576.943C534.006 575.97 533.84 574.827 534.09 573.738L572.739 402.717C572.928 401.893 573.344 401.139 573.94 400.539C574.536 399.94 575.288 399.519 576.111 399.325L627.943 387.293C628.58 387.149 629.241 387.142 629.88 387.275C630.52 387.408 631.124 387.676 631.651 388.063C665.781 412.862 662.898 493.884 656.537 581.861C656.457 582.962 655.976 583.996 655.184 584.765C654.393 585.535 653.346 585.986 652.242 586.034L636.361 586.726C636.295 586.728 636.229 586.73 636.163 586.73Z" fill="#1B1616"/>
<path d="M592.531 307.032C606.096 307.032 617.093 296.035 617.093 282.471C617.093 268.906 606.096 257.91 592.531 257.91C578.967 257.91 567.97 268.906 567.97 282.471C567.97 296.035 578.967 307.032 592.531 307.032Z" fill="#FFC8AE"/>
<path d="M593.592 409.768C587.696 409.73 581.882 408.386 576.568 405.833L576.386 405.748L576.313 405.56L554.283 348.484L553.865 338.566C553.724 335.25 554.28 331.941 555.496 328.853C556.712 325.764 558.561 322.964 560.925 320.634C563.288 318.303 566.114 316.493 569.219 315.321C572.324 314.148 575.641 313.639 578.955 313.826L602.343 315.144C608.384 315.487 614.067 318.12 618.236 322.506C622.404 326.893 624.744 332.703 624.779 338.754C625.387 339.921 629.701 349.046 621.246 357.619C620.93 359.571 617.973 379.866 629.133 391.027L629.447 391.34L629.173 391.689C628.995 391.915 614.662 409.765 593.592 409.768Z" fill="#F6AE2D"/>
<path d="M617 264.831C618.452 266.796 620.448 268.395 622.796 269.474C625.144 270.553 627.764 271.076 630.404 270.991C637.189 270.704 642.846 266.487 647.938 262.484L663 250.643L653.032 250.218C645.863 249.912 638.509 249.627 631.682 251.596C624.854 253.564 618.557 258.302 617.308 264.595" fill="#EE6969"/>
<path d="M620.145 264.816C622.545 264.235 624.95 263.243 627.126 261.935C629.303 260.628 631.178 259.049 632.572 257.351C636.097 252.974 635.806 248.628 635.375 244.68L634.102 233L628.236 239.281C624.017 243.798 619.713 248.436 617.53 253.134C615.346 257.833 615.706 262.678 620.124 264.578" fill="#EDAB8C"/>
<path d="M626.434 414.073C627.816 413.572 629.071 412.774 630.111 411.736C631.152 410.697 631.952 409.443 632.455 408.061C632.958 406.68 633.152 405.205 633.023 403.741C632.895 402.276 632.447 400.858 631.711 399.585L655.07 372.542L636.655 370.145L617.296 396.193C615.241 397.572 613.762 399.656 613.14 402.052C612.518 404.447 612.797 406.988 613.923 409.192C615.05 411.396 616.945 413.11 619.251 414.01C621.557 414.91 624.112 414.932 626.434 414.073Z" fill="#FFC8AE"/>
<path d="M641.038 393.2C640.161 393.2 639.302 392.943 638.57 392.46L627.017 384.883C626.045 384.249 625.357 383.263 625.096 382.132C624.836 381.002 625.022 379.814 625.618 378.819L633.981 364.767C634.434 364.007 634.72 363.159 634.822 362.28C634.924 361.402 634.839 360.511 634.572 359.668C634.305 358.824 633.863 358.047 633.275 357.386C632.686 356.726 631.965 356.197 631.157 355.835L607.13 345.063C604.175 343.721 601.763 341.416 600.289 338.525C598.815 335.633 598.367 332.327 599.018 329.148C599.467 327.004 600.405 324.992 601.758 323.27C603.111 321.547 604.844 320.16 606.821 319.216C608.798 318.272 610.966 317.798 613.156 317.828C615.347 317.859 617.5 318.395 619.45 319.394L655.902 338.073C658.361 339.333 660.519 341.109 662.228 343.281C663.936 345.452 665.155 347.968 665.802 350.654C666.448 353.341 666.506 356.135 665.972 358.846C665.438 361.557 664.324 364.121 662.707 366.362L644.687 391.331C644.271 391.91 643.723 392.382 643.088 392.707C642.454 393.032 641.751 393.201 641.038 393.2Z" fill="#F6AE2D"/>
<path d="M510.264 210.944C511.558 211.642 512.684 212.614 513.561 213.794C514.439 214.974 515.047 216.331 515.343 217.771C515.639 219.211 515.615 220.698 515.274 222.128C514.933 223.558 514.283 224.896 513.369 226.048L532.528 256.212L513.961 255.894L498.614 227.298C496.781 225.634 495.622 223.356 495.357 220.896C495.092 218.435 495.739 215.962 497.175 213.946C498.611 211.93 500.737 210.511 503.149 209.958C505.562 209.405 508.093 209.756 510.264 210.944V210.944Z" fill="#FFC8AE"/>
<path d="M525.707 232.424L550.38 290.726L576.249 334.59C577.341 336.442 577.998 338.517 578.17 340.66C578.342 342.803 578.026 344.957 577.243 346.959C576.461 348.962 575.235 350.76 573.656 352.219C572.077 353.678 570.187 354.759 568.129 355.38C564.865 356.349 561.362 356.118 558.254 354.73C555.145 353.342 552.635 350.888 551.178 347.811L501.321 241.279C501.05 240.7 500.905 240.07 500.897 239.431C500.889 238.792 501.016 238.159 501.272 237.573C501.527 236.987 501.904 236.463 502.378 236.034C502.852 235.605 503.412 235.283 504.02 235.087L520.186 229.894C520.493 229.795 520.808 229.729 521.129 229.697C522.083 229.6 523.044 229.813 523.868 230.304C524.692 230.796 525.337 231.539 525.707 232.424Z" fill="#F6AE2D"/>
<path d="M563.018 264.516L584.387 256L613.895 259.483L620 280L604.803 279.556L600.557 272.018V279.431L593.544 279.226L589.474 267.226L586.93 280L562 279.614L563.018 264.516Z" fill="#2F2E41"/>
<path d="M605.342 297.651C605.342 297.651 602.744 309.229 607.94 310.632C613.135 312.036 597.548 318 597.548 318H588.715L583 309.931C583 309.931 588.196 303.615 585.078 297.651C581.961 291.686 605.342 297.651 605.342 297.651Z" fill="#FFC8AE"/>
<path opacity="0.2" d="M428.057 206.367L432.394 220.925L420.158 216.823L428.057 206.367ZM459.695 220.166L434.052 254.138C433.117 255.358 431.787 256.036 430.348 256.025C428.91 256.014 427.479 255.315 426.365 254.08L395.727 219.597C394.627 218.343 393.939 216.66 393.811 214.911C393.684 213.162 394.127 211.487 395.046 210.249L420.733 176.242C421.668 175.022 422.999 174.344 424.437 174.355C425.875 174.366 427.306 175.065 428.42 176.3L459.058 210.783C460.162 212.046 460.848 213.741 460.967 215.498C461.086 217.256 460.629 218.933 459.695 220.166ZM443.171 233.081C443.171 233.081 447.537 227.309 448.944 223.821C449.33 222.876 449.493 221.801 449.419 220.704C449.344 219.606 449.034 218.524 448.519 217.566C446.637 214.082 436.702 202.889 436.702 202.889C436.702 202.889 426.787 191.73 423.767 189.699C422.947 189.146 422.042 188.85 421.142 188.84C420.241 188.831 419.376 189.108 418.634 189.644C415.929 191.616 411.57 197.399 411.57 197.399C411.57 197.399 407.203 203.171 405.797 206.659C405.417 207.602 405.26 208.675 405.343 209.767C405.425 210.86 405.743 211.934 406.266 212.88C408.157 216.358 418.085 227.539 418.085 227.539C418.085 227.539 428.001 238.698 431.02 240.729C431.838 241.293 432.746 241.596 433.649 241.608C434.552 241.619 435.419 241.339 436.16 240.795C438.864 238.824 443.231 233.051 443.231 233.051L443.171 233.081Z" fill="#B91616"/>
<g opacity="0.2" filter="url(#filter0_d)">
<path d="M407.096 308.285L367.481 322.05C366.77 322.296 366.147 322.701 365.646 323.241C365.145 323.781 364.777 324.446 364.563 325.196C364.348 325.947 364.292 326.77 364.396 327.617C364.501 328.464 364.764 329.319 365.172 330.133L387.769 375.562C388.175 376.377 388.717 377.135 389.364 377.793C390.011 378.45 390.75 378.995 391.54 379.396C392.33 379.796 393.154 380.045 393.965 380.127C394.777 380.209 395.56 380.123 396.269 379.874L435.884 366.109C436.595 365.863 437.218 365.458 437.719 364.918C438.22 364.378 438.588 363.713 438.802 362.963C439.017 362.212 439.074 361.389 438.969 360.542C438.865 359.695 438.601 358.84 438.193 358.026L415.56 312.609C414.745 310.971 413.396 309.596 411.809 308.786C410.223 307.975 408.528 307.795 407.096 308.285ZM411.801 330.689C412.004 331.039 412.19 331.424 412.366 331.779C417.94 342.973 416.943 358.435 403.369 363.156C399.373 364.571 394.797 364.636 390.187 363.346C390.815 363.215 391.427 363.044 392.02 362.834C395.348 361.696 397.946 359.309 399.395 356.057C397.839 356.56 396.056 356.495 394.294 355.873C392.533 355.25 390.882 354.1 389.572 352.584C390.787 352.416 391.894 351.968 392.821 351.268C390.957 351.459 388.939 350.942 387.107 349.803C385.276 348.664 383.744 346.974 382.773 345.02L382.695 344.933C384.04 345.231 385.362 345.201 386.554 344.845C385.157 344.425 383.806 343.667 382.62 342.638C381.435 341.609 380.451 340.341 379.758 338.948C379 337.449 378.608 335.853 378.623 334.327C381.78 336.299 385.16 337.636 388.542 338.25C391.924 338.864 395.232 338.742 398.253 337.891C396.985 336.2 396.207 334.238 396.039 332.308C395.871 330.378 396.322 328.588 397.323 327.216C398.324 325.843 399.819 324.965 401.576 324.716C403.333 324.468 405.254 324.863 407.042 325.841C408.514 324.904 409.755 323.663 410.709 322.174C411.134 324.318 410.81 326.375 409.797 327.96C411.171 327.26 412.385 326.318 413.399 325.167C413.2 327.159 412.663 329.023 411.81 330.681L411.801 330.689Z" fill="#1B1616"/>
</g>
<path opacity="0.2" d="M677.8 147.776C676.929 150.896 676.84 154.258 677.545 157.439C678.249 160.619 679.715 163.476 681.758 165.649C683.801 167.822 686.329 169.214 689.024 169.649C691.718 170.084 694.459 169.543 696.9 168.094C699.342 166.645 701.374 164.352 702.741 161.506C704.109 158.659 704.75 155.386 704.584 152.099C704.418 148.812 703.452 145.658 701.809 143.035C700.165 140.412 697.917 138.437 695.348 137.359C693.632 136.639 691.814 136.337 690.001 136.471C688.188 136.606 686.415 137.173 684.784 138.142C683.152 139.11 681.696 140.46 680.497 142.113C679.298 143.767 678.382 145.691 677.8 147.776ZM699.373 156.756C698.797 158.792 697.737 160.575 696.325 161.88C694.914 163.186 693.214 163.955 691.441 164.091C689.669 164.226 687.903 163.722 686.367 162.642C684.831 161.562 683.594 159.954 682.812 158.022C682.03 156.09 681.739 153.921 681.975 151.789C682.21 149.656 682.963 147.656 684.137 146.042C685.311 144.428 686.854 143.271 688.57 142.719C690.287 142.167 692.1 142.243 693.781 142.939C696.032 143.879 697.884 145.86 698.932 148.449C699.98 151.039 700.138 154.025 699.373 156.756ZM682.968 127.378C683.555 127.635 684.067 128.095 684.439 128.702C684.812 129.309 685.028 130.035 685.062 130.79C685.096 131.545 684.945 132.296 684.629 132.948C684.312 133.6 683.845 134.124 683.284 134.456C682.723 134.788 682.094 134.912 681.475 134.814C680.856 134.715 680.274 134.398 679.804 133.901C679.333 133.405 678.993 132.751 678.827 132.022C678.661 131.293 678.676 130.521 678.869 129.803C679.002 129.313 679.214 128.86 679.493 128.471C679.772 128.083 680.113 127.766 680.495 127.54C680.877 127.314 681.293 127.183 681.718 127.155C682.143 127.127 682.568 127.203 682.968 127.378ZM689.026 118.167C684.874 116.704 680.935 116.332 676.931 118.731C672.928 121.13 670.757 125.146 669.158 129.969C667.559 134.793 663.153 150.252 661.956 155.46C660.76 160.669 660.453 165.249 662.412 170.111C664.371 174.973 667.707 177.59 671.689 179.527C675.671 181.464 688.433 186.801 692.732 188.251C697.032 189.701 700.823 190.085 704.827 187.686C708.83 185.287 711.001 181.272 712.6 176.448C714.199 171.625 718.605 156.166 719.802 150.957C720.998 145.749 721.316 141.156 719.336 136.307C717.355 131.457 714.04 128.828 710.058 126.89C706.076 124.953 693.325 119.629 689.026 118.167ZM712.706 135.345C713.652 136.324 714.423 137.529 714.969 138.884C715.515 140.239 715.827 141.715 715.883 143.222C716.063 147.84 713.034 157.333 711.763 161.862C710.493 166.39 708.057 176.14 705.589 179.643C704.78 180.789 703.786 181.722 702.667 182.384C701.549 183.046 700.33 183.423 699.087 183.491C695.274 183.71 687.437 180.04 683.699 178.501C679.96 176.961 671.912 174.011 669.02 171.022C668.074 170.042 667.304 168.837 666.757 167.482C666.211 166.128 665.9 164.651 665.843 163.145C665.663 158.526 668.692 149.033 669.963 144.504C671.234 139.976 673.67 130.226 676.137 126.724C676.946 125.577 677.94 124.644 679.059 123.982C680.177 123.32 681.396 122.943 682.64 122.875C686.452 122.657 694.289 126.326 698.028 127.865C701.766 129.405 709.825 132.356 712.717 135.357L712.706 135.345Z" fill="#B91616"/>
<path opacity="0.2" d="M481.297 54.1299L493.712 95.2742C493.941 96.0188 494.035 96.8068 493.988 97.5924C493.942 98.3779 493.755 99.1452 493.44 99.8494C493.125 100.554 492.687 101.18 492.152 101.694C491.618 102.207 490.997 102.595 490.326 102.838L464.626 112.506C465.191 109.886 465.452 107.196 465.405 104.501C465.315 103.039 464.942 97.0768 464.942 97.0768C466.319 98.5516 469.22 99.1315 471.827 98.1609C479.581 95.249 482.764 85.1898 479.728 75.2945C476.872 65.8152 467.798 61.3277 458.882 64.6807C447.787 68.8531 444.412 79.3787 447.143 88.442C448.408 92.6523 451.997 97.1272 455.71 97.5936C456.274 97.6693 456.5 97.455 456.455 96.8877C456.41 96.3205 456.274 94.3666 456.184 93.3708C456.178 93.2138 456.136 93.0612 456.06 92.9284C455.985 92.7957 455.88 92.6874 455.755 92.6144C453.941 91.1786 452.579 89.1408 451.861 86.7907C451.349 85.108 451.149 83.3267 451.272 81.5548C451.395 79.7829 451.84 78.0576 452.579 76.4836C453.318 74.9096 454.336 73.5199 455.571 72.3989C456.805 71.2778 458.231 70.4488 459.762 69.9624C466.071 67.5926 471.951 70.7314 474.017 77.6013C476.353 85.3663 474.48 92.0598 469.897 93.7742C469.322 94.0272 468.701 94.1254 468.086 94.0609C467.47 93.9963 466.877 93.7708 466.354 93.4026C465.831 93.0344 465.393 92.5339 465.075 91.9414C464.757 91.349 464.569 90.6814 464.525 89.9925C464.22 86.3117 464.525 82.1015 463.769 79.6308C461.895 73.4415 454.254 77.261 456.748 85.5302C457.176 87.0039 457.876 88.3609 458.803 89.5135C460.202 106.266 459.762 106.657 462.493 113.187H462.753L453.475 116.678C452.809 116.934 452.103 117.039 451.4 116.987C450.696 116.935 450.009 116.727 449.379 116.375C448.748 116.022 448.187 115.534 447.728 114.936C447.268 114.339 446.92 113.646 446.703 112.897L434.288 71.7524C434.059 71.0078 433.965 70.2198 434.012 69.4342C434.058 68.6487 434.245 67.8814 434.56 67.1772C434.875 66.4731 435.313 65.8461 435.848 65.3331C436.382 64.82 437.003 64.4311 437.674 64.1891L474.513 50.3231C475.182 50.0658 475.89 49.9604 476.596 50.0133C477.302 50.0661 477.991 50.2761 478.623 50.6308C479.255 50.9855 479.817 51.4778 480.276 52.0787C480.736 52.6796 481.082 53.377 481.297 54.1299Z" fill="#B91616"/>
</g>
<defs>
<filter id="filter0_d" x="360.345" y="308.014" width="82.675" height="80.1429" filterUnits="userSpaceOnUse" color-interpolation-filters="sRGB">
<feFlood flood-opacity="0" result="BackgroundImageFix"/>
<feColorMatrix in="SourceAlpha" type="matrix" values="0 0 0 0 0 0 0 0 0 0 0 0 0 0 0 0 0 0 127 0"/>
<feOffset dy="4"/>
<feGaussianBlur stdDeviation="2"/>
<feColorMatrix type="matrix" values="0 0 0 0 0 0 0 0 0 0 0 0 0 0 0 0 0 0 0.25 0"/>
<feBlend mode="normal" in2="BackgroundImageFix" result="effect1_dropShadow"/>
<feBlend mode="normal" in="SourceGraphic" in2="effect1_dropShadow" result="shape"/>
</filter>
<clipPath id="clip0">
<rect width="928.526" height="635.213" fill="white"/>
</clipPath>
</defs>
</svg>
