<svg width="1298" height="1100" viewBox="0 0 1298 1100" fill="none" xmlns="http://www.w3.org/2000/svg">
<rect width="1298" height="1100" fill="#E5E5E5"/>
<path d="M658.338 1.59017L1281.27 299.918C1286.45 302.399 1290.75 306.28 1293.62 311.076C1296.49 315.871 1297.82 321.368 1297.43 326.878L1261.24 837.54C1261.07 839.83 1260.32 842.047 1259.04 843.991C1257.76 845.936 1255.99 847.548 1253.9 848.684C1251.8 849.82 1249.45 850.445 1247.04 850.502C1244.63 850.559 1242.24 850.046 1240.09 849.011L602.952 539.275L635.662 14.0388C635.816 11.5716 636.611 9.17933 637.975 7.07692C639.339 4.97451 641.23 3.22778 643.478 1.99361C645.726 0.75944 648.261 0.0764757 650.854 0.00605869C653.448 -0.0643583 656.019 0.479975 658.338 1.59017V1.59017Z" fill="#D0CDE1"/>
<path d="M665.507 11.9964L1273.14 302.997C1278.19 305.417 1282.38 309.202 1285.18 313.88C1287.99 318.558 1289.28 323.92 1288.9 329.294L1253.6 827.413C1253.44 829.647 1252.7 831.809 1251.45 833.706C1250.2 835.603 1248.48 837.176 1246.44 838.284C1244.4 839.392 1242.1 840.001 1239.75 840.057C1237.4 840.112 1235.07 839.612 1232.97 838.602L611.482 536.474L643.389 24.1393C643.539 21.7327 644.314 19.3992 645.644 17.3484C646.975 15.2976 648.819 13.5938 651.012 12.39C653.205 11.1861 655.677 10.5199 658.207 10.4512C660.737 10.3825 663.246 10.9135 665.507 11.9964V11.9964Z" fill="#FFE0E0"/>
<path d="M692.136 50.648L1242.94 314.431C1247.52 316.625 1251.31 320.056 1253.86 324.297C1256.4 328.537 1257.57 333.397 1257.22 338.269L1225.22 789.799C1225.08 791.824 1224.41 793.784 1223.28 795.504C1222.15 797.223 1220.58 798.649 1218.73 799.653C1216.88 800.658 1214.8 801.21 1212.67 801.26C1210.54 801.311 1208.43 800.858 1206.53 799.942L643.165 526.072L672.087 61.6552C672.223 59.4736 672.925 57.3584 674.132 55.4994C675.338 53.6404 677.01 52.096 678.997 51.0047C680.985 49.9135 683.226 49.3096 685.52 49.2473C687.813 49.185 690.087 49.6663 692.136 50.648V50.648Z" fill="white"/>
<path d="M123.793 790.552L747.522 1089.77C753.326 1092.55 759.735 1093.99 766.232 1093.98C772.729 1093.98 779.134 1092.52 784.931 1089.72L1246.35 866.604C1251.76 861.45 1251 853.812 1249.27 848.078C1248.43 845.302 1247.29 842.618 1245.86 840.069L1182.98 808.567L654.327 557.313L622.742 541.341C614.38 537.123 605.069 534.901 595.607 534.864C586.146 534.828 576.816 536.979 568.419 541.132L123.598 761.232C120.768 762.626 118.398 764.738 116.75 767.336C115.102 769.933 114.241 772.914 114.261 775.949C114.281 778.984 115.182 781.954 116.865 784.531C118.547 787.108 120.945 789.192 123.793 790.552V790.552Z" fill="#FFE0E0"/>
<path opacity="0.1" d="M123.794 790.552L747.522 1089.77C753.326 1092.55 759.735 1093.99 766.232 1093.98C772.729 1093.98 779.134 1092.52 784.931 1089.72L1246.35 866.604C1251.76 861.45 1251 853.812 1249.27 848.078L789.235 1075.85C783.621 1078.63 777.397 1080.11 771.071 1080.16C764.745 1080.21 758.495 1078.83 752.832 1076.15L114.484 773.21C113.884 776.669 114.464 780.221 116.14 783.342C117.815 786.463 120.498 788.991 123.794 790.552V790.552Z" fill="black"/>
<path opacity="0.1" d="M715.811 880.203L513.816 782.971C509.749 781.013 505.247 780.017 500.691 780.067C496.135 780.116 491.659 781.209 487.64 783.255L370.461 842.887C369.107 843.576 367.978 844.606 367.197 845.864C366.415 847.123 366.011 848.561 366.029 850.024C366.048 851.486 366.487 852.915 367.299 854.155C368.112 855.396 369.266 856.4 370.637 857.059L576.592 955.989C580.011 957.631 583.803 958.447 587.632 958.363C591.461 958.279 595.21 957.298 598.547 955.508L716.193 892.373C717.339 891.757 718.288 890.855 718.935 889.763C719.582 888.671 719.903 887.432 719.864 886.178C719.825 884.925 719.426 883.706 718.712 882.653C717.998 881.599 716.994 880.752 715.811 880.203V880.203Z" fill="black"/>
<path opacity="0.1" d="M1191.54 863.942L974.175 973.938C971.674 975.204 968.891 975.879 966.058 975.906C963.226 975.933 960.429 975.312 957.901 974.095L343.751 678.252C342.02 677.418 340.568 676.142 339.556 674.566C338.543 672.991 338.012 671.178 338.02 669.331C338.028 667.483 338.576 665.675 339.603 664.108C340.629 662.541 342.093 661.276 343.831 660.457L556.094 560.382C559.293 558.874 562.816 558.095 566.386 558.107C569.955 558.119 573.473 558.922 576.661 560.452L1191.45 855.513C1192.26 855.904 1192.95 856.502 1193.43 857.24C1193.91 857.979 1194.18 858.829 1194.19 859.699C1194.19 860.57 1193.95 861.425 1193.49 862.174C1193.02 862.922 1192.35 863.533 1191.54 863.942Z" fill="black"/>
<path d="M844.771 315.375L843.681 317.451L1043.52 412.632L1044.61 410.555L844.771 315.375Z" fill="black"/>
<path d="M844.753 343.289L843.644 345.354L1043.54 442.755L1044.65 440.69L844.753 343.289Z" fill="black"/>
<path d="M881.345 396.617L880.235 398.685L994.764 454.428L995.873 452.361L881.345 396.617Z" fill="black"/>
<path d="M1067.33 480.605C1083.71 454.246 1116.11 453.018 1116.11 453.018C1116.11 453.018 1147.68 449.172 1167.93 489.317C1186.81 526.736 1212.86 562.865 1172.13 571.624L1164.77 549.808L1160.21 573.248C1154.41 573.646 1148.59 573.741 1142.78 573.532C1099.15 572.191 1057.61 573.925 1058.94 559.012C1060.72 539.189 1051.57 505.968 1067.33 480.605Z" fill="#2F2E41"/>
<path d="M1044.41 958.453C1044.41 958.453 1065.09 995.027 1078.38 995.027C1091.67 995.027 1090.19 1018.94 1087.24 1024.57C1084.28 1030.19 1076.9 1042.86 1088.72 1061.14C1092.84 1067.53 1092.1 1074.78 1089.4 1081.5C1081.81 1100.34 1052.29 1094.63 1053.24 1074.47C1053.25 1074.25 1053.26 1074.03 1053.27 1073.8C1054.75 1051.3 1042.94 1016.13 1031.12 1007.69C1019.31 999.248 1008.97 976.74 1008.97 976.74L1044.41 958.453Z" fill="#FFB8B8"/>
<path d="M1186.18 950.013C1186.18 950.013 1165.51 986.587 1152.22 986.587C1138.92 986.587 1140.4 1010.5 1143.35 1016.13C1146.31 1021.75 1153.69 1034.41 1141.88 1052.7C1137.75 1059.09 1138.49 1066.34 1141.2 1073.06C1148.79 1091.9 1178.3 1086.19 1177.36 1066.03C1177.35 1065.81 1177.34 1065.59 1177.32 1065.36C1175.84 1042.86 1187.66 1007.69 1199.47 999.248C1211.29 990.807 1221.62 968.3 1221.62 968.3L1186.18 950.013Z" fill="#FFB8B8"/>
<path d="M1169.94 769.956L1178.8 788.243C1178.8 788.243 1308.75 829.037 1296.94 876.865C1285.12 924.693 1227.53 999.247 1218.67 996.434C1209.81 993.621 1162.55 985.181 1161.08 961.267C1159.6 937.353 1195.04 895.152 1195.04 895.152L1146.31 852.951L1075.39 851.544L1014.88 895.152C1014.88 895.152 1078.38 948.606 1050.32 969.707C1022.26 990.807 980.911 1004.87 975.004 996.434C969.097 987.994 902.643 862.798 912.98 851.544C923.318 840.291 1028.17 798.09 1028.17 798.09L1056.23 760.109L1165.51 754.483L1169.94 769.956Z" fill="#264653"/>
<path d="M1145 530.28C1145 530.28 1137.61 576.701 1152.38 582.328C1167.15 587.955 1122.85 611.868 1122.85 611.868H1097.74L1081.5 579.514C1081.5 579.514 1096.26 554.194 1087.4 530.28C1078.54 506.366 1145 530.28 1145 530.28Z" fill="#FFB8B8"/>
<path opacity="0.1" d="M1143.36 537.851C1143.36 537.851 1135.97 584.272 1150.74 589.899C1165.51 595.526 1121.2 619.44 1121.2 619.44H1096.1L1079.85 587.086C1079.85 587.086 1094.62 561.765 1085.76 537.851C1076.9 513.937 1143.36 537.851 1143.36 537.851Z" fill="black"/>
<path d="M1153.69 577.239C1153.69 577.239 1137.45 594.119 1134.49 596.933C1131.54 599.746 1118.25 615.22 1090.19 592.713C1062.13 570.206 1059.18 596.933 1059.18 596.933V765.736C1059.18 765.736 1082.81 755.889 1102.01 765.736C1121.2 775.583 1161.08 762.923 1161.08 762.923L1168.46 588.492L1153.69 577.239Z" fill="white"/>
<path d="M1142.84 577.239C1142.84 577.239 1156.65 571.612 1168.46 577.239C1180.27 582.866 1221.62 611 1218.67 623.66C1215.72 636.32 1177.32 724.942 1203.9 767.143C1230.48 809.344 1234.91 820.597 1234.91 820.597L1169.94 788.243C1169.94 788.243 1119.73 758.703 1124.16 740.416C1128.59 722.129 1142.84 577.239 1142.84 577.239Z" fill="#ACD2CB"/>
<path d="M1084.27 577.239C1084.27 577.239 1053.27 580.052 1051.8 582.866C1050.32 585.679 1005.28 597.636 1008.23 610.296C1011.19 622.957 1051.8 736.196 1034.07 757.296C1016.35 778.396 986.819 807.937 997.156 810.751C1007.49 813.564 1025.21 806.53 1042.94 810.751C1060.66 814.971 1102.01 779.803 1097.58 741.822C1093.15 703.842 1097.54 587.086 1084.27 577.239Z" fill="#ACD2CB"/>
<path d="M1158.12 845.918V859.985C1158.12 859.985 1165.51 892.339 1141.88 890.932C1118.25 889.525 1133.02 851.545 1133.02 851.545L1134.49 838.884L1158.12 845.918Z" fill="#FFB8B8"/>
<path d="M1091.67 847.324C1091.67 847.324 1107.91 879.678 1091.67 882.492C1075.42 885.305 1063.61 864.205 1063.61 858.578C1063.61 852.951 1091.67 847.324 1091.67 847.324Z" fill="#FFB8B8"/>
<path d="M1070.22 527.356C1071.85 527.356 1073.18 524.836 1073.18 521.729C1073.18 518.621 1071.85 516.102 1070.22 516.102C1068.59 516.102 1067.27 518.621 1067.27 521.729C1067.27 524.836 1068.59 527.356 1070.22 527.356Z" fill="#FFB8B8"/>
<path d="M1157.35 527.356C1158.98 527.356 1160.3 524.836 1160.3 521.729C1160.3 518.621 1158.98 516.102 1157.35 516.102C1155.72 516.102 1154.4 518.621 1154.4 521.729C1154.4 524.836 1155.72 527.356 1157.35 527.356Z" fill="#FFB8B8"/>
<path d="M1044.41 595.526C1044.41 595.526 1007.49 595.526 1008.97 609.593C1010.45 623.66 1059.18 865.611 1059.18 865.611C1059.18 865.611 1079.85 847.324 1097.58 851.544L1044.41 595.526Z" fill="#ACD2CB"/>
<path d="M1187.66 599.746C1187.66 599.746 1224.58 606.779 1224.58 627.88C1224.58 648.98 1171.41 851.544 1164.03 851.544C1156.65 851.544 1128.59 847.324 1128.59 840.291C1128.59 833.257 1187.66 599.746 1187.66 599.746Z" fill="#ACD2CB"/>
<path opacity="0.2" d="M1179.54 641.243L1146.31 765.02C1146.31 765.02 1161.81 656.717 1179.54 641.243Z" fill="#161414"/>
<path opacity="0.2" d="M1050.29 623.851L1083.9 785.683C1083.9 785.683 1073.16 633.187 1050.29 623.851Z" fill="#ACD2CB"/>
<path d="M1113.82 560.358C1137.47 560.358 1156.65 542.094 1156.65 519.564C1156.65 497.034 1137.47 478.77 1113.82 478.77C1090.17 478.77 1070.99 497.034 1070.99 519.564C1070.99 542.094 1090.17 560.358 1113.82 560.358Z" fill="#FFB8B8"/>
<path d="M1074.57 478.064L1106.58 462.093L1150.78 468.626L1159.93 507.103L1137.16 506.271L1130.8 492.134V506.037L1120.3 505.652L1114.2 483.146L1110.39 507.103L1073.04 506.379L1074.57 478.064Z" fill="#2F2E41"/>
<path d="M658.739 177.537L641.087 217.527L790.079 292.024L840.275 152.101" fill="#F0898B"/>
<path d="M786.645 267.489L852.465 119.963L701.187 49.0537L637.653 192.992L786.645 267.489Z" fill="#ACD2CB"/>
<path d="M697.611 105.468L696.502 107.536L811.031 163.28L812.14 161.212L697.611 105.468Z" fill="black"/>
<path d="M689.025 125.096L687.916 127.164L802.445 182.908L803.554 180.84L689.025 125.096Z" fill="black"/>
<g opacity="0.2" filter="url(#filter0_d)">
<path d="M523.292 334.537L484.072 319.682C483.369 319.416 482.631 319.326 481.901 319.419C481.17 319.512 480.461 319.786 479.815 320.224C479.169 320.662 478.598 321.257 478.134 321.974C477.671 322.691 477.325 323.516 477.115 324.402L465.306 373.748C465.095 374.633 465.024 375.562 465.099 376.481C465.173 377.401 465.391 378.293 465.74 379.107C466.088 379.921 466.561 380.64 467.131 381.224C467.701 381.808 468.356 382.244 469.06 382.508L508.28 397.363C508.983 397.629 509.721 397.719 510.452 397.626C511.182 397.533 511.891 397.259 512.537 396.821C513.183 396.383 513.755 395.788 514.218 395.071C514.681 394.354 515.027 393.529 515.237 392.643L527.01 343.284C527.436 341.505 527.283 339.585 526.586 337.945C525.889 336.306 524.705 335.08 523.292 334.537ZM512.529 354.742C512.459 355.141 512.355 355.556 512.262 355.941C509.357 368.103 498.674 379.324 485.232 374.239C481.259 372.76 477.706 369.875 474.998 365.927C475.564 366.23 476.143 366.491 476.732 366.71C480.015 367.973 483.539 367.808 486.737 366.243C485.221 365.631 483.895 364.437 482.943 362.83C481.991 361.222 481.462 359.281 481.43 357.277C482.47 357.928 483.607 358.294 484.767 358.352C483.215 357.303 481.998 355.611 481.324 353.563C480.649 351.514 480.558 349.235 481.067 347.113L481.063 346.996C481.903 348.088 482.937 348.913 484.08 349.404C483.278 348.186 482.728 346.738 482.478 345.188C482.229 343.638 482.287 342.035 482.649 340.521C483.03 338.885 483.753 337.409 484.744 336.248C485.9 339.787 487.635 342.98 489.835 345.621C492.036 348.261 494.652 350.29 497.515 351.575C497.628 349.465 498.29 347.46 499.399 345.872C500.508 344.284 502.002 343.2 503.65 342.79C505.299 342.379 507.009 342.664 508.516 343.601C510.024 344.537 511.244 346.073 511.988 347.97C513.718 348.196 515.466 348.04 517.153 347.509C516.104 349.427 514.536 350.797 512.742 351.363C514.245 351.707 515.78 351.764 517.297 351.531C515.867 352.931 514.259 354.017 512.54 354.741L512.529 354.742Z" fill="#1B1616"/>
</g>
<path opacity="0.2" d="M343.605 407.732C342.735 410.852 342.646 414.214 343.35 417.395C344.055 420.575 345.521 423.432 347.563 425.605C349.606 427.778 352.134 429.17 354.829 429.605C357.524 430.04 360.265 429.499 362.706 428.05C365.147 426.601 367.18 424.308 368.547 421.462C369.915 418.616 370.556 415.342 370.39 412.055C370.224 408.768 369.258 405.614 367.614 402.991C365.971 400.368 363.723 398.393 361.154 397.315C359.437 396.595 357.62 396.293 355.807 396.427C353.994 396.562 352.221 397.129 350.589 398.098C348.958 399.066 347.501 400.416 346.303 402.069C345.104 403.723 344.187 405.647 343.605 407.732V407.732ZM365.178 416.712C364.603 418.748 363.543 420.531 362.131 421.836C360.719 423.142 359.02 423.911 357.247 424.047C355.475 424.182 353.709 423.678 352.173 422.598C350.637 421.518 349.399 419.91 348.618 417.978C347.836 416.046 347.544 413.877 347.78 411.745C348.016 409.612 348.769 407.612 349.943 405.998C351.117 404.384 352.66 403.227 354.376 402.675C356.093 402.123 357.906 402.199 359.586 402.895C361.837 403.835 363.689 405.816 364.737 408.405C365.785 410.995 365.944 413.981 365.178 416.712ZM348.774 387.334C349.361 387.591 349.873 388.051 350.245 388.658C350.617 389.265 350.834 389.991 350.868 390.746C350.901 391.502 350.751 392.252 350.434 392.904C350.118 393.556 349.65 394.081 349.089 394.412C348.528 394.744 347.899 394.869 347.28 394.77C346.661 394.671 346.08 394.354 345.609 393.857C345.138 393.361 344.799 392.707 344.633 391.978C344.466 391.249 344.481 390.477 344.675 389.759C344.807 389.269 345.019 388.816 345.298 388.427C345.578 388.039 345.919 387.722 346.301 387.496C346.683 387.27 347.099 387.139 347.524 387.111C347.948 387.083 348.373 387.159 348.774 387.334V387.334ZM354.831 378.123C350.68 376.66 346.74 376.288 342.737 378.687C338.734 381.086 336.563 385.102 334.964 389.925C333.364 394.749 328.959 410.208 327.762 415.416C326.565 420.625 326.258 425.205 328.217 430.067C330.177 434.929 333.513 437.546 337.495 439.483C341.477 441.421 354.238 446.757 358.538 448.207C362.838 449.657 366.629 450.041 370.632 447.642C374.636 445.243 376.807 441.228 378.406 436.404C380.005 431.581 384.41 416.122 385.607 410.913C386.804 405.705 387.122 401.112 385.141 396.263C383.161 391.414 379.846 388.784 375.864 386.846C371.882 384.909 359.131 379.585 354.831 378.123V378.123ZM378.512 395.301C379.458 396.28 380.228 397.485 380.775 398.84C381.321 400.195 381.632 401.671 381.689 403.178C381.869 407.796 378.84 417.289 377.569 421.818C376.298 426.347 373.862 436.097 371.395 439.599C370.586 440.745 369.592 441.678 368.473 442.34C367.355 443.002 366.136 443.379 364.892 443.447C361.08 443.666 353.243 439.996 349.504 438.457C345.766 436.918 337.717 433.967 334.826 430.978C333.88 429.998 333.109 428.793 332.563 427.439C332.016 426.084 331.705 424.607 331.649 423.101C331.469 418.482 334.498 408.989 335.768 404.46C337.039 399.932 339.475 390.182 341.943 386.68C342.752 385.533 343.746 384.6 344.865 383.938C345.983 383.276 347.202 382.899 348.445 382.831C352.258 382.613 360.095 386.282 363.833 387.821C367.572 389.361 375.631 392.312 378.522 395.314L378.512 395.301Z" fill="black"/>
<path opacity="0.2" d="M387.075 143.291L391.413 157.848L379.177 153.746L387.075 143.291ZM418.714 157.089L393.071 191.062C392.136 192.282 390.805 192.959 389.367 192.948C387.929 192.938 386.498 192.239 385.384 191.004L354.746 156.52C353.645 155.267 352.957 153.583 352.83 151.834C352.702 150.085 353.146 148.411 354.064 147.172L379.752 113.165C380.687 111.945 382.017 111.268 383.456 111.279C384.894 111.29 386.325 111.988 387.439 113.223L418.077 147.707C419.18 148.969 419.866 150.664 419.986 152.422C420.105 154.179 419.648 155.857 418.714 157.089V157.089ZM402.19 170.005C402.19 170.005 406.556 164.233 407.963 160.745C408.348 159.8 408.512 158.725 408.437 157.627C408.363 156.53 408.053 155.448 407.538 154.49C405.655 151.005 395.721 139.812 395.721 139.812C395.721 139.812 385.805 128.653 382.786 126.622C381.966 126.069 381.061 125.773 380.16 125.764C379.26 125.754 378.395 126.032 377.652 126.568C374.948 128.539 370.588 134.323 370.588 134.323C370.588 134.323 366.222 140.095 364.815 143.583C364.435 144.526 364.279 145.598 364.361 146.691C364.443 147.783 364.762 148.857 365.284 149.804C367.176 153.281 377.104 164.463 377.104 164.463C377.104 164.463 387.019 175.622 390.038 177.653C390.857 178.217 391.764 178.52 392.667 178.531C393.57 178.543 394.437 178.262 395.179 177.719C397.883 175.747 402.249 169.975 402.249 169.975L402.19 170.005Z" fill="black"/>
<path d="M8.88621 493.187C8.88621 493.187 8.22412 358.377 83.9652 299.81C115.762 275.224 135.845 239.313 139.77 196.34C141.585 175.917 141.315 154.828 138.964 133.339" stroke="#535461" stroke-width="2" stroke-miterlimit="10"/>
<path d="M179.286 302.282C163.495 304.536 107.827 283.151 107.827 283.151C107.827 283.151 143.737 248.872 159.522 246.657C167.051 245.767 175.226 247.768 182.297 252.231C189.367 256.694 194.771 263.264 197.352 270.536C199.933 277.807 199.486 285.202 196.106 291.137C192.727 297.072 186.683 301.075 179.269 302.291L179.286 302.282Z" fill="#264653"/>
<path d="M185.784 85.4595C181.481 101.248 142.503 136.611 142.503 136.611C142.503 136.611 128.63 80.5377 132.963 64.782C135.165 57.3822 139.964 51.4005 146.333 48.1175C152.701 44.8346 160.132 44.5111 167.036 47.2164C173.94 49.9217 179.768 55.4409 183.272 62.5923C186.776 69.7438 187.678 77.9594 185.785 85.4805L185.784 85.4595Z" fill="#264653"/>
<path d="M118.647 152.647C127.743 168.71 132.57 228.158 132.57 228.158C132.57 228.158 84.8148 194.435 75.7579 178.374C71.5929 170.698 69.8258 162.077 70.8347 154.359C71.8437 146.64 75.5486 140.436 81.1563 137.076C86.7641 133.716 93.8291 133.465 100.839 136.378C107.849 139.292 114.247 145.137 118.663 152.664L118.647 152.647Z" fill="#264653"/>
<path d="M214.698 199.158C199.919 204.165 143.273 192.018 143.273 192.018C143.273 192.018 172.362 151.012 187.141 146.045C194.217 143.845 202.358 144.471 209.824 147.789C217.289 151.106 223.485 156.851 227.085 163.795C230.685 170.738 231.402 178.328 229.085 184.939C226.767 191.551 221.597 196.659 214.683 199.169L214.698 199.158Z" fill="#264653"/>
<path d="M9.97958 625.648C9.97958 625.648 25.5312 556.217 68.7782 534.29C86.9941 525.263 100.665 508.709 107.737 487.114C111.024 476.817 113.393 465.951 114.812 454.652" stroke="#535461" stroke-width="2" stroke-miterlimit="10"/>
<path opacity="0.5" d="M140.335 496.051C133.313 498.292 106.555 488.627 106.555 488.627C106.555 488.627 120.519 465.995 127.52 463.82C129.19 463.288 131.01 463.179 132.875 463.497C134.741 463.816 136.616 464.556 138.393 465.676C140.171 466.796 141.815 468.273 143.234 470.024C144.652 471.774 145.816 473.764 146.66 475.879C147.503 477.994 148.009 480.192 148.149 482.35C148.29 484.507 148.061 486.58 147.476 488.451C146.892 490.322 145.963 491.955 144.743 493.255C143.523 494.555 142.035 495.498 140.365 496.029L140.335 496.051Z" fill="#FDB797"/>
<path opacity="0.5" d="M571.137 336.039C577.195 341.871 605.409 347.923 605.409 347.923C605.409 347.923 598.524 320.125 592.438 314.292C589.529 311.49 585.617 309.949 581.563 310.008C577.509 310.067 573.645 311.721 570.82 314.607C567.995 317.492 566.442 321.373 566.501 325.395C566.561 329.416 568.228 333.25 571.137 336.052V336.039Z" fill="white"/>
<path opacity="0.5" d="M1.49144 552.049C4.65901 561.156 27.0762 584.563 27.0762 584.563C27.0762 584.563 31.1065 555.185 27.9324 546.089C27.1791 543.924 26.0913 541.858 24.7309 540.008C23.3706 538.158 21.7644 536.56 20.0041 535.306C18.2438 534.052 16.3639 533.166 14.4717 532.7C12.5794 532.233 10.7119 532.194 8.97572 532.585C7.23958 532.977 5.66883 533.791 4.35312 534.981C3.03741 536.17 2.0025 537.713 1.30751 539.521C0.612532 541.328 0.271058 543.365 0.302612 545.514C0.334166 547.664 0.738154 549.885 1.49144 552.049Z" fill="#FDB797"/>
<path opacity="0.5" d="M110.846 412.717C108.002 420.356 113.279 451.9 113.279 451.9C113.279 451.9 135.014 439.15 137.845 431.513C138.52 429.697 138.84 427.656 138.786 425.506C138.732 423.356 138.305 421.139 137.529 418.982C136.753 416.826 135.644 414.771 134.264 412.936C132.885 411.101 131.263 409.521 129.49 408.287C127.717 407.053 125.829 406.189 123.932 405.743C122.036 405.298 120.169 405.281 118.437 405.692C116.706 406.103 115.145 406.936 113.842 408.141C112.539 409.346 111.521 410.901 110.846 412.717Z" fill="#FDB797"/>
<path opacity="0.5" d="M78.0979 446.542C81.2655 455.649 103.683 479.055 103.683 479.055C103.683 479.055 107.713 449.678 104.539 440.582C103.786 438.417 102.698 436.351 101.337 434.501C99.977 432.651 98.3709 431.053 96.6106 429.799C94.8503 428.545 92.9704 427.659 91.0781 427.193C89.1858 426.726 87.3183 426.687 85.5822 427.078C83.846 427.47 82.2753 428.283 80.9596 429.473C79.6438 430.663 78.6089 432.206 77.914 434.013C77.219 435.821 76.8775 437.858 76.9091 440.007C76.9406 442.157 77.3446 444.377 78.0979 446.542Z" fill="#FDB797"/>
<path opacity="0.5" d="M54.2956 503.63C57.4632 512.737 79.8804 536.143 79.8804 536.143C79.8804 536.143 83.9107 506.766 80.7366 497.669C79.9833 495.505 78.8955 493.438 77.5351 491.588C76.1748 489.738 74.5686 488.14 72.8083 486.886C71.048 485.632 69.1681 484.747 67.2759 484.28C65.3836 483.813 63.5161 483.774 61.7799 484.166C60.0438 484.557 58.473 485.371 57.1573 486.561C55.8416 487.751 54.8067 489.293 54.1117 491.101C53.4167 492.908 53.0753 494.945 53.1068 497.095C53.1384 499.244 53.5423 501.465 54.2956 503.63Z" fill="#FDB797"/>
<path opacity="0.5" d="M66.8544 601.418C60.0005 603.324 33.4552 593.013 33.4552 593.013C33.4552 593.013 46.657 571.676 53.4915 569.832C55.1217 569.38 56.909 569.341 58.7516 569.717C60.5941 570.092 62.4558 570.876 64.2303 572.022C66.0047 573.168 67.6572 574.655 69.0935 576.397C70.5297 578.139 71.7215 580.102 72.6009 582.175C73.4803 584.247 74.0299 586.389 74.2185 588.476C74.4071 590.564 74.231 592.557 73.7001 594.342C73.1692 596.127 72.294 597.669 71.1245 598.88C69.955 600.09 68.514 600.946 66.8839 601.398L66.8544 601.418Z" fill="#FDB797"/>
<path d="M33.9073 241.066C41.6415 256.634 90.5599 295.518 90.5599 295.518C90.5599 295.518 94.5904 244.063 86.8688 228.474C83.1482 220.989 76.789 214.477 69.1902 210.368C61.5915 206.26 53.3757 204.892 46.35 206.566C39.3244 208.24 34.0644 212.819 31.7274 219.295C29.3904 225.77 30.1677 233.613 33.8883 241.097L33.9073 241.066Z" fill="#264653"/>
<path d="M117.814 309.334C102.333 308.899 58.1012 337.423 58.1012 337.423C58.1012 337.423 103.706 368.464 119.204 368.922C126.647 369.129 133.711 366.186 138.841 360.742C143.971 355.297 146.748 347.796 146.56 339.89C146.373 331.983 143.236 324.318 137.841 318.581C132.445 312.844 125.232 309.505 117.789 309.298L117.814 309.334Z" fill="#264653"/>
<path opacity="0.2" d="M589.368 239.559L589.752 284.284C589.759 285.084 589.655 285.879 589.446 286.623C589.237 287.366 588.927 288.044 588.534 288.618C588.14 289.191 587.672 289.648 587.154 289.964C586.636 290.28 586.08 290.447 585.516 290.457L577.894 290.584L577.697 268.076L583.113 267.987L583.818 259.387L577.626 259.489L577.581 254.001C577.581 251.461 578.028 249.81 580.539 249.772H583.738L583.676 242.15C582.125 241.941 580.568 241.852 579.011 241.883C574.4 241.96 571.272 246.024 571.335 253.316L571.388 259.667L565.955 259.756L566.027 268.342L571.469 268.253L571.665 290.749L554.07 291.054C553.507 291.064 552.948 290.916 552.425 290.619C551.902 290.322 551.425 289.881 551.021 289.322C550.618 288.763 550.296 288.097 550.074 287.361C549.852 286.625 549.734 285.834 549.727 285.033L549.343 240.308C549.336 239.508 549.44 238.713 549.649 237.969C549.858 237.226 550.168 236.548 550.561 235.975C550.955 235.401 551.424 234.944 551.941 234.628C552.459 234.313 553.016 234.145 553.579 234.135L585.025 233.551C586.161 233.53 587.256 234.152 588.071 235.278C588.885 236.404 589.351 237.944 589.368 239.559V239.559Z" fill="black"/>
<path opacity="0.2" d="M571.093 454.946L580.986 496.362C581.168 497.112 581.243 497.905 581.206 498.696C581.169 499.487 581.02 500.259 580.769 500.968C580.518 501.677 580.169 502.308 579.743 502.824C579.317 503.341 578.822 503.732 578.288 503.976L557.81 513.708C558.26 511.07 558.468 508.363 558.431 505.651C558.359 504.179 558.062 498.177 558.062 498.177C559.159 499.661 561.47 500.245 563.548 499.268C569.726 496.337 572.262 486.211 569.843 476.25C567.568 466.708 560.337 462.191 553.233 465.566C544.392 469.766 541.703 480.362 543.88 489.485C544.887 493.723 547.747 498.228 550.705 498.697C551.155 498.773 551.335 498.557 551.299 497.986C551.263 497.415 551.155 495.449 551.083 494.446C551.079 494.288 551.045 494.135 550.985 494.001C550.925 493.867 550.841 493.758 550.741 493.685C549.296 492.24 548.211 490.188 547.639 487.823C547.231 486.129 547.071 484.336 547.169 482.552C547.268 480.769 547.622 479.032 548.211 477.447C548.8 475.863 549.611 474.464 550.594 473.336C551.578 472.207 552.714 471.373 553.934 470.883C558.961 468.498 563.647 471.657 565.292 478.573C567.154 486.389 565.661 493.127 562.01 494.852C561.552 495.107 561.057 495.206 560.567 495.141C560.076 495.076 559.603 494.849 559.186 494.478C558.77 494.108 558.421 493.604 558.167 493.007C557.914 492.411 557.764 491.739 557.729 491.046C557.486 487.341 557.729 483.102 557.127 480.615C555.634 474.385 549.545 478.23 551.533 486.554C551.874 488.037 552.431 489.403 553.17 490.563C554.285 507.427 553.934 507.82 556.11 514.393H556.317L548.925 517.908C548.394 518.166 547.831 518.271 547.271 518.219C546.71 518.166 546.163 517.957 545.661 517.602C545.158 517.248 544.711 516.756 544.345 516.155C543.979 515.553 543.701 514.855 543.529 514.101L533.636 472.685C533.454 471.935 533.379 471.142 533.416 470.351C533.453 469.561 533.602 468.788 533.853 468.079C534.104 467.371 534.453 466.74 534.879 466.223C535.305 465.707 535.8 465.315 536.334 465.072L565.688 451.114C566.221 450.855 566.785 450.749 567.348 450.802C567.91 450.855 568.459 451.066 568.963 451.424C569.466 451.781 569.914 452.276 570.28 452.881C570.646 453.486 570.922 454.188 571.093 454.946V454.946Z" fill="black"/>
<path d="M1064.14 982.184C1064.14 982.184 1067.8 1013.02 1059.04 1019.51C1050.28 1026.01 1045.5 1080.09 1045.5 1080.09C1045.5 1080.09 1089.37 1114.43 1101.06 1076.87C1101.06 1076.87 1098.29 1001.13 1103.06 985.447L1064.14 982.184Z" fill="black"/>
<path d="M1145.25 986.298C1145.25 986.298 1152.37 1016.18 1162.51 1017.45C1172.65 1018.73 1195.27 1065.25 1195.27 1065.25C1195.27 1065.25 1167.12 1119.47 1143.82 1091.57C1143.82 1091.57 1120.7 1021.45 1111.07 1009.74L1145.25 986.298Z" fill="black"/>
<path d="M765.314 601.272L763.886 602.15C762.782 599.69 761.228 597.959 759.224 596.959C757.22 595.958 755.502 595.825 754.071 596.56C752.668 597.309 751.687 598.551 751.13 600.288C750.583 601.994 750.601 603.541 751.185 604.929C751.779 606.286 752.78 607.67 754.188 609.08L755.487 610.312C757.57 612.307 758.868 613.697 759.38 614.483C759.892 615.269 760.327 616.034 760.686 616.779C761.055 617.493 761.299 618.181 761.419 618.842C761.705 620.434 761.609 621.977 761.13 623.47C760.279 626.121 758.716 627.833 756.442 628.606C754.177 629.349 751.771 629.084 749.223 627.812C746.045 626.225 743.641 623.416 742.012 619.386L743.524 618.709C744.956 622.323 746.988 624.787 749.622 626.102C751.655 627.117 753.64 627.348 755.578 626.796C757.516 626.243 758.822 624.916 759.497 622.813C759.81 621.838 759.883 620.832 759.718 619.795C759.581 618.772 759.343 617.911 759.003 617.211C758.701 616.495 758.156 615.657 757.368 614.698C756.417 613.622 755.162 612.359 753.601 610.908C749.747 607.393 748.321 603.764 749.322 600.022C749.931 597.71 751.154 596.022 752.99 594.959C754.835 593.866 757.004 593.941 759.494 595.185C761.985 596.428 763.925 598.458 765.314 601.272ZM779.23 642.371L777.641 641.577L781.601 629.237C781.867 628.203 781.778 627.187 781.334 626.188C780.891 625.188 780.049 624.344 778.809 623.654C776.92 622.71 775.092 622.505 773.327 623.038C771.562 623.57 770.385 624.751 769.799 626.579L766.733 636.131L765.144 635.338L776.145 601.059L777.734 601.853L770.752 623.608C771.833 622.415 773.116 621.677 774.602 621.394C776.116 621.125 777.675 621.391 779.279 622.191C780.92 622.976 782.09 624.09 782.789 625.535C783.488 626.98 783.622 628.479 783.19 630.031L779.23 642.371ZM801.479 640.436L785.918 639.241C785.994 640.87 786.443 642.367 787.267 643.733C788.12 645.113 789.376 646.217 791.037 647.047C792.697 647.876 794.358 647.98 796.018 647.36L796.799 648.81C794.667 649.655 792.471 649.513 790.209 648.383C787.948 647.254 786.279 645.413 785.205 642.862C784.14 640.28 783.999 637.77 784.781 635.332C785.573 632.864 787.064 631.17 789.253 630.248C791.452 629.295 793.711 629.398 796.03 630.556C797.862 631.471 799.228 632.806 800.125 634.563C801.052 636.333 801.503 638.291 801.479 640.436ZM786.385 636.08C786.277 636.415 786.154 636.902 786.016 637.54L799.926 638.599C799.554 635.515 798.094 633.336 795.546 632.064C793.571 631.078 791.714 630.964 789.976 631.722C788.266 632.495 787.069 633.947 786.385 636.08ZM817.012 658.638C815.947 656.056 815.806 653.546 816.588 651.108C817.37 648.671 818.856 646.991 821.045 646.069C823.244 645.117 825.461 645.198 827.694 646.313C829.927 647.428 831.586 649.141 832.672 651.45L831.446 652.164C830.569 650.241 829.171 648.801 827.253 647.843C825.334 646.885 823.506 646.785 821.768 647.544C820.059 648.316 818.862 649.769 818.177 651.902C817.493 654.035 817.555 656.116 818.365 658.147C819.204 660.192 820.582 661.693 822.5 662.651C824.418 663.609 826.227 663.769 827.926 663.133L828.418 664.704C826.355 665.442 824.206 665.253 821.973 664.138C819.74 663.023 818.086 661.189 817.012 658.638ZM848.066 676.742L846.477 675.949L847.357 673.206L848.146 671.214C847.046 672.468 845.71 673.268 844.137 673.614C842.574 673.929 840.977 673.68 839.345 672.865C837.026 671.707 835.329 669.852 834.255 667.301C833.19 664.718 833.049 662.209 833.831 659.771C834.623 657.303 836.114 655.608 838.303 654.686C840.502 653.734 842.761 653.837 845.08 654.994C846.74 655.824 848.025 656.995 848.934 658.51C849.843 660.024 850.354 661.693 850.466 663.517L852.192 658.917L853.566 659.603L848.066 676.742ZM835.435 660.519C834.76 662.621 834.823 664.703 835.623 666.764C836.451 668.839 837.854 670.37 839.829 671.357C841.833 672.357 843.695 672.456 845.414 671.653C847.162 670.864 848.373 669.419 849.048 667.316C849.732 665.183 849.655 663.094 848.817 661.05C848.007 659.019 846.6 657.503 844.596 656.503C842.621 655.516 840.764 655.402 839.026 656.161C837.316 656.933 836.119 658.386 835.435 660.519ZM869.438 687.414L867.849 686.62L871.809 674.28C872.075 673.246 871.986 672.229 871.542 671.23C871.099 670.231 870.257 669.387 869.017 668.697C867.128 667.753 865.3 667.548 863.535 668.08C861.769 668.613 860.593 669.793 860.007 671.622L856.941 681.174L855.352 680.38L860.838 663.287L862.255 663.995L860.96 668.651C862.04 667.458 863.324 666.72 864.81 666.437C866.324 666.168 867.883 666.434 869.486 667.234C871.128 668.019 872.298 669.133 872.997 670.578C873.696 672.023 873.83 673.521 873.398 675.073L869.438 687.414ZM889.564 694.865C888.499 692.283 888.358 689.773 889.14 687.335C889.923 684.898 891.408 683.218 893.598 682.296C895.797 681.344 898.013 681.425 900.246 682.54C902.479 683.655 904.138 685.367 905.224 687.677L903.998 688.391C903.121 686.468 901.723 685.027 899.805 684.07C897.887 683.112 896.058 683.012 894.32 683.77C892.611 684.543 891.414 685.996 890.729 688.129C890.045 690.261 890.107 692.343 890.917 694.374C891.756 696.419 893.134 697.92 895.052 698.878C896.971 699.836 898.779 699.996 900.478 699.36L900.97 700.931C898.907 701.668 896.759 701.48 894.525 700.365C892.292 699.249 890.639 697.416 889.564 694.865ZM922.631 704.058C921.839 706.526 920.343 708.236 918.144 709.188C915.955 710.11 913.686 709.985 911.339 708.813C909.02 707.655 907.323 705.8 906.249 703.249C905.184 700.667 905.043 698.157 905.825 695.719C906.617 693.251 908.108 691.556 910.297 690.634C912.496 689.682 914.755 689.785 917.074 690.943C919.421 692.115 921.133 693.977 922.207 696.528C923.282 699.08 923.423 701.59 922.631 704.058ZM907.429 696.467C906.754 698.569 906.817 700.651 907.617 702.712C908.445 704.787 909.847 706.318 911.823 707.305C913.827 708.305 915.689 708.404 917.408 707.601C919.156 706.812 920.367 705.367 921.042 703.264C921.726 701.131 921.649 699.043 920.811 696.998C920.001 694.967 918.594 693.451 916.59 692.451C914.614 691.464 912.758 691.35 911.019 692.109C909.31 692.881 908.113 694.334 907.429 696.467ZM939.742 722.518L938.153 721.724L939.033 718.982L939.822 716.99C938.722 718.243 937.385 719.043 935.813 719.389C934.25 719.705 932.653 719.455 931.021 718.64C928.702 717.482 927.005 715.628 925.93 713.076C924.866 710.494 924.724 707.984 925.507 705.547C926.299 703.079 927.789 701.384 929.979 700.462C932.178 699.509 934.437 699.612 936.756 700.77C938.416 701.599 939.701 702.771 940.61 704.286C941.519 705.8 942.03 707.469 942.142 709.293L949.153 687.446L950.742 688.24L939.742 722.518ZM927.11 706.294C926.436 708.397 926.498 710.479 927.298 712.54C928.127 714.615 929.529 716.146 931.505 717.132C933.509 718.133 935.37 718.232 937.09 717.429C938.838 716.64 940.049 715.194 940.724 713.092C941.408 710.959 941.331 708.87 940.493 706.825C939.683 704.795 938.276 703.279 936.272 702.278C934.296 701.292 932.439 701.178 930.701 701.936C928.992 702.709 927.795 704.162 927.11 706.294ZM962.688 720.93L947.127 719.736C947.202 721.364 947.652 722.861 948.476 724.227C949.328 725.608 950.585 726.712 952.245 727.541C953.906 728.37 955.566 728.475 957.227 727.855L958.007 729.305C955.876 730.15 953.679 730.007 951.418 728.878C949.156 727.749 947.488 725.908 946.413 723.357C945.349 720.775 945.207 718.265 945.99 715.827C946.782 713.359 948.272 711.664 950.461 710.742C952.661 709.79 954.92 709.893 957.238 711.051C959.071 711.966 960.436 713.301 961.334 715.058C962.26 716.828 962.712 718.786 962.688 720.93ZM947.593 716.575C947.486 716.91 947.363 717.397 947.224 718.035L961.134 719.094C960.762 716.01 959.302 713.831 956.754 712.559C954.779 711.572 952.922 711.458 951.184 712.217C949.475 712.989 948.278 714.442 947.593 716.575Z" fill="black"/>
<defs>
<filter id="filter0_d" x="461.07" y="319.384" width="70.1767" height="86.2779" filterUnits="userSpaceOnUse" color-interpolation-filters="sRGB">
<feFlood flood-opacity="0" result="BackgroundImageFix"/>
<feColorMatrix in="SourceAlpha" type="matrix" values="0 0 0 0 0 0 0 0 0 0 0 0 0 0 0 0 0 0 127 0"/>
<feOffset dy="4"/>
<feGaussianBlur stdDeviation="2"/>
<feColorMatrix type="matrix" values="0 0 0 0 0 0 0 0 0 0 0 0 0 0 0 0 0 0 0.25 0"/>
<feBlend mode="normal" in2="BackgroundImageFix" result="effect1_dropShadow"/>
<feBlend mode="normal" in="SourceGraphic" in2="effect1_dropShadow" result="shape"/>
</filter>
</defs>
</svg>
